<svg xmlns="http://www.w3.org/2000/svg" width="370.08" height="435.6" viewBox="0 0 370.08 435.6">
  <g id="chart.svg" transform="translate(-45.12)">
    <path id="Pfad_447" data-name="Pfad 447" d="M471.4,88.046l-.145.4c-.9.813-2.693.661-3.978-.094-1.648-.973-3.913-2.817-4.436-5.351,1.953,2.171,8.559,5.053,8.559,5.053Z" transform="translate(-114.458 -22.743)" fill="#fff"/>
    <path id="Pfad_448" data-name="Pfad 448" d="M462.209,82.055a15.535,15.535,0,0,0,8.879,5.982c.544.138.77-.7.232-.835a14.69,14.69,0,0,1-8.363-5.583c-.327-.443-1.082-.015-.748.436Z" transform="translate(-114.262 -22.313)" fill="#f2bbaa"/>
    <path id="Pfad_449" data-name="Pfad 449" d="M462.739,79.719a2.334,2.334,0,0,0-2.984,1.692c-.131.544.7.77.835.232a1.459,1.459,0,0,1,1.917-1.082.434.434,0,0,0,.232-.835h0Z" transform="translate(-113.609 -21.814)" fill="#f2bbaa"/>
    <g id="Gruppe_459" data-name="Gruppe 459" transform="translate(45.12)">
      <path id="Pfad_450" data-name="Pfad 450" d="M485.462,101.745a4.388,4.388,0,0,1,.109.486,12.262,12.262,0,0,1-.45,5.394,4.26,4.26,0,0,1,.152.617,12.418,12.418,0,0,1-.494,5.554,2.793,2.793,0,0,1,.74,1.633c.051.29.08.588.1.878.16.044.312.094.472.138L488.7,90.71a18.323,18.323,0,0,1-2.94,6.519,12.119,12.119,0,0,1-.29,4.508Z" transform="translate(-165.59 -24.855)" fill="#b6fff8"/>
      <path id="Pfad_451" data-name="Pfad 451" d="M476.061,116.442a1.708,1.708,0,0,1-.051-.182c0,.087.014.167.022.247.015-.022.022-.044.036-.065Z" transform="translate(-163.187 -31.856)" fill="#b6fff8"/>
      <path id="Pfad_452" data-name="Pfad 452" d="M476.124,108.8c-.022-.087-.044-.167-.065-.254-.007.152-.022.3-.029.457.029-.073.058-.138.087-.211Z" transform="translate(-163.192 -29.743)" fill="#b6fff8"/>
      <path id="Pfad_453" data-name="Pfad 453" d="M458.828,114.18l-.058.022c.007.073.022.138.029.211.007-.08.022-.152.029-.232Z" transform="translate(-158.463 -31.286)" fill="#fff"/>
      <path id="Pfad_454" data-name="Pfad 454" d="M272.427,165.66a22.834,22.834,0,0,1-6.127,7.47q.152,2.254.276,4.588a51.672,51.672,0,0,1,7.674-11.485c-.109-.029-.218-.051-.327-.08a10,10,0,0,1-1.5-.486Z" transform="translate(-105.725 -45.392)" fill="#fff"/>
      <path id="Pfad_455" data-name="Pfad 455" d="M304.387,185.658H290.129V172.01h12.915l-2.977-30.267a10.715,10.715,0,0,1-1.169-.436c-2.984,1.263-4.828,1.975-4.828,1.975v-.051c-7.18,2.512-20.037-.363-33.672-5.714.007-.319.029-.639.058-.973-5.532-2.178-11.217-4.661-16.763-7.187a73.365,73.365,0,0,1-31.5,16.052c.029,1.031.058,2.055.087,3.078C220,142.622,243.4,136.073,270.229,141,242.6,157.9,219.8,154.078,212.353,152.11c.211,12.11-.087,22.52-.726,24.415-.733,2.178-2.207,2.526-3.478,2.011a3.264,3.264,0,0,1-1.706-4.225c1.394-3.557,2.069-12.669,2.367-22.9-6.534,1.721-30.114,5.975-58.406-12.2,27.835-4.465,51.734,3.238,58.479,9.387.029-1.212.051-2.439.065-3.666-5.743-1.169-40.7-9.961-55.488-53.165,32.074,11.667,50.856,32.641,55.553,45.309,0-1.917,0-3.8-.015-5.626-3.652-4.3-15.3-20.313-12.313-46.4-4.349-5.024-8.189-9.481-10.723-12.422a.43.43,0,0,1,.617-.6c2.679,2.454,6.381,6.106,10.476,10.251,1.655-10.941,5.881-23.551,14.237-37.723,12.814,21.976,15.05,44.228,12.393,60.969a29.629,29.629,0,0,0,5.9,1.692,11.786,11.786,0,0,1,6,2.962,120.844,120.844,0,0,1,32.2-16.386,89.082,89.082,0,0,1-14.157,25.337c2.614.363,5.14.69,7.449.944,1.539.167,3.507.392,5.43.61.218-.261.443-.515.668-.748,2.105.24,4.087.457,5.314.581a109.157,109.157,0,0,1,19.268,4.494c11.311-10.367,28.6-21.969,39.922-25.787A6.5,6.5,0,0,1,333.8,97.69c2.563-1.133,8.109-3.376,10.527-2.679.08-.007.16-.022.24-.036a13.254,13.254,0,0,1-.857-2.868,6.624,6.624,0,0,1,.269-3.478,50.645,50.645,0,0,1-5.554.225c-.327-1.1-.653-2.28-.98-3.514H318.885V71.692h15.8c-.24-1.771-.428-3.557-.552-5.322-.588.029-1.118-.711-.566-1.191a3.6,3.6,0,0,1,.479-.341c-.058-1.154-.08-2.287-.065-3.4a14.135,14.135,0,0,1-1.437.109c-4.283-10.3,3.216-23.566,19.246-23.769a20.006,20.006,0,0,1,8.61,1.568l2.526-24.822L66.45,15.994,78.131,217.406h247.9a150.334,150.334,0,0,0,5.249-19.435l-25.628.682L304.38,185.68Zm-1.256-96.39a10.527,10.527,0,1,1,10.527-10.527A10.525,10.525,0,0,1,303.131,89.268Zm-20.008-56.33h38.245V46.587H283.123Zm-15.159-1.481a10.527,10.527,0,1,1-10.527,10.527A10.525,10.525,0,0,1,267.964,31.457ZM150.658,33.672A10.527,10.527,0,1,1,140.131,44.2a10.525,10.525,0,0,1,10.527-10.527ZM98.677,37h38.245V50.653H98.677Zm31.515,43.712a10.527,10.527,0,1,1-10.527-10.527A10.525,10.525,0,0,1,130.192,80.716ZM80.425,73.71h24.7V87.359h-24.7Zm4.429,62.711h24.7V150.07h-24.7V136.422Zm47.269,52.569H93.878V175.342h38.245Zm-8.029-35.958a10.523,10.523,0,1,1,10.527-10.52A10.524,10.524,0,0,1,124.094,153.032Zm22.869,38.732a10.527,10.527,0,1,1,10.527-10.527A10.525,10.525,0,0,1,146.963,191.764Zm128.37-2.214a10.527,10.527,0,1,1,10.527-10.527A10.525,10.525,0,0,1,275.333,189.55Z" transform="translate(-50.965 -3.979)" fill="#fff"/>
      <path id="Pfad_456" data-name="Pfad 456" d="M269.928,115.127A10.581,10.581,0,0,0,273,116.869c2.657-16.749.428-39-12.393-60.969-8.356,14.171-12.589,26.782-14.237,37.723,7.833,7.935,17.1,17.685,23.341,24.306a8.012,8.012,0,0,1,.218-2.8Z" transform="translate(-100.264 -15.317)" fill="#ffc50a"/>
      <path id="Pfad_457" data-name="Pfad 457" d="M255.431,152.056a14.389,14.389,0,0,1-4.247-.639A52.186,52.186,0,0,0,243.51,162.9q-.12-2.33-.276-4.588a22.771,22.771,0,0,0,6.127-7.47c-1.844-.777-3.158-2.069-2.418-3.434a2.161,2.161,0,0,1,.407-.515c-1.053-.791-1.684-1.706-1.234-2.534.254-.479,1.038-.69,1.873-.733-1.917-1.133-3.136-2.483-2.018-3.9a2.577,2.577,0,0,1,1.7-.951c-1.554-1.256-2.476-2.592-1.358-3.71a2.594,2.594,0,0,1,1.917-.733c-6.04-6.824-13.474-15.362-19.827-22.695-3,26.085,8.661,42.1,12.313,46.4.007,1.822.015,3.71.015,5.626-4.7-12.669-23.479-33.65-55.553-45.309,14.8,43.2,49.752,52,55.488,53.165-.015,1.227-.036,2.447-.065,3.666-6.744-6.149-30.637-13.859-58.479-9.387,28.285,18.179,51.872,13.925,58.406,12.2-.3,10.229-.973,19.34-2.367,22.9a3.264,3.264,0,0,0,1.706,4.225c1.27.515,2.744.167,3.478-2.011.639-1.895.929-12.3.726-24.415,7.449,1.975,30.245,5.786,57.876-11.108-26.833-4.929-50.231,1.626-57.949,7.485-.022-1.024-.051-2.047-.087-3.078a73.266,73.266,0,0,0,31.5-16.052c-3.63-1.655-7.2-3.318-10.629-4.929a11.671,11.671,0,0,1-9.344,1.024Z" transform="translate(-82.659 -30.59)" fill="#ffc50a"/>
      <path id="Pfad_458" data-name="Pfad 458" d="M302.051,143.827a12.825,12.825,0,0,1-.116,2.73c4.842.871,10.353,1.764,15.536,2.49a88.981,88.981,0,0,0,14.157-25.337,120.844,120.844,0,0,0-32.2,16.386,10.259,10.259,0,0,1,2.614,3.732Z" transform="translate(-114.803 -33.897)" fill="#ffc50a"/>
      <path id="Pfad_459" data-name="Pfad 459" d="M178.457,61.934A10.527,10.527,0,1,0,167.93,51.407,10.525,10.525,0,0,0,178.457,61.934Zm-2.381-17.141,3.753-.225.995,13.6-2.846.073-.632-11.188-1.706,2.026-1.2-2.432,1.633-1.859Z" transform="translate(-78.771 -11.201)" fill="#ffc50a"/>
      <path id="Pfad_460" data-name="Pfad 460" d="M179.8,48.453l.639,11.18,2.839-.065-.995-13.6-3.753.218L176.9,48.046l1.2,2.432Z" transform="translate(-81.229 -12.596)" fill="#fff"/>
      <path id="Pfad_461" data-name="Pfad 461" d="M125.26,101.717A10.527,10.527,0,1,0,135.787,91.19a10.525,10.525,0,0,0-10.527,10.527Zm15.834-2.737a3.978,3.978,0,0,1-.37,1.721,3.649,3.649,0,0,1-2.483,1.829c-.138.036-.465.094-.987.174s-1.241.2-2.163.327c-1.125.16-1.771.457-1.938.878a3.539,3.539,0,0,0-.225,1.365l7.376.494-.211,2.773-10.171-.465V107.9c0-.1.007-.479.029-1.14.015-.378.029-.748.044-1.118s.029-.748.044-1.125a5.02,5.02,0,0,1,.486-2.084,3.284,3.284,0,0,1,2.461-1.452c.53-.044,1.06-.094,1.583-.138s1.053-.087,1.575-.138c1.118-.131,1.8-.472,2.055-1.031a1.33,1.33,0,0,0,.123-.574c0-.7-.966-1.183-2.882-1.445-.566-.08-1.154-.138-1.771-.174s-1.263-.044-1.953-.029l-.189-3.085a24.846,24.846,0,0,1,5.721.922c2.57.813,3.855,2.047,3.855,3.688Z" transform="translate(-67.079 -24.987)" fill="#ffc50a"/>
      <path id="Pfad_462" data-name="Pfad 462" d="M133.473,98.665c.682-.015,1.336,0,1.953.029s1.205.094,1.771.174c1.924.261,2.882.748,2.882,1.445a1.307,1.307,0,0,1-.123.574c-.254.559-.944.9-2.055,1.031-.523.044-1.053.094-1.575.138s-1.053.087-1.583.138a3.3,3.3,0,0,0-2.461,1.452,5.261,5.261,0,0,0-.486,2.084c-.015.378-.029.748-.044,1.125s-.029.748-.044,1.118c-.022.661-.029,1.038-.029,1.14v.174l10.171.465.211-2.773-7.376-.494a3.407,3.407,0,0,1,.225-1.365c.167-.421.813-.719,1.938-.878.922-.138,1.641-.247,2.163-.327s.849-.145.987-.174a3.665,3.665,0,0,0,2.483-1.83,3.933,3.933,0,0,0,.37-1.721c0-1.641-1.285-2.875-3.855-3.688a24.846,24.846,0,0,0-5.721-.922l.189,3.085Z" transform="translate(-68.838 -26.19)" fill="#fff"/>
      <path id="Pfad_463" data-name="Pfad 463" d="M141.877,176.3A10.523,10.523,0,1,0,152.4,186.827,10.525,10.525,0,0,0,141.877,176.3Zm2.352,11.914q2.134,1.383,2.134,2.948,0,2.559-5.256,2.563a36.872,36.872,0,0,1-4.581-.363l.189-2.773c.363.094.719.189,1.067.29s.7.2,1.067.312a8.894,8.894,0,0,0,2.171.319q1.786,0,1.786-1.35c0-1.133-1.329-1.88-3.993-2.258q-.425-.044-1.241-.152l.225-2.948c.3.051.6.1.886.152s.574.094.864.152a9.875,9.875,0,0,0,1.757.181q2.222,0,2.222-1.5c0-1-1.329-1.459-3.993-1.459a21.685,21.685,0,0,0-2.461.152l.24-2.882c1.133.145,2.28.327,3.463.544q6.185,1.122,6.185,3.5c0,1.074-.82,1.9-2.461,2.468a10.941,10.941,0,0,1-3.688.6,12.288,12.288,0,0,1,3.427,1.5Z" transform="translate(-68.748 -48.307)" fill="#ffc50a"/>
      <path id="Pfad_464" data-name="Pfad 464" d="M148.913,184.874q0-2.385-6.185-3.5-1.764-.327-3.463-.544l-.24,2.882a21.689,21.689,0,0,1,2.461-.152q4,0,3.993,1.459c0,.973-.741,1.5-2.222,1.5a9.874,9.874,0,0,1-1.757-.182l-.864-.152c-.283-.044-.581-.094-.886-.152l-.225,2.948q.817.109,1.241.152,4,.566,3.993,2.258,0,1.35-1.786,1.35a9.312,9.312,0,0,1-2.171-.319c-.363-.109-.719-.211-1.067-.312s-.7-.2-1.067-.29l-.189,2.773a36.875,36.875,0,0,0,4.581.363q5.26,0,5.256-2.563,0-1.568-2.134-2.948a12.381,12.381,0,0,0-3.427-1.5,10.912,10.912,0,0,0,3.688-.6q2.461-.86,2.461-2.468Z" transform="translate(-70.701 -49.549)" fill="#fff"/>
      <path id="Pfad_465" data-name="Pfad 465" d="M173.71,244.338l4.479-.414-.465-5.474Z" transform="translate(-80.355 -65.337)" fill="#ffc50a"/>
      <path id="Pfad_466" data-name="Pfad 466" d="M173.377,229.65A10.527,10.527,0,1,0,183.9,240.177,10.525,10.525,0,0,0,173.377,229.65Zm1.844,17.5-.254-3.013-6.766.588-.2-2.563,5.561-8.494,3.369-.472,1.191,13.6-2.9.363Z" transform="translate(-77.379 -62.926)" fill="#ffc50a"/>
      <path id="Pfad_467" data-name="Pfad 467" d="M175.5,234.989l-5.561,8.494.2,2.563,6.766-.588.254,3.013,2.9-.363-1.191-13.6-3.369.472Zm-2.824,8.269,4.015-5.888.465,5.474Z" transform="translate(-79.322 -64.257)" fill="#fff"/>
      <path id="Pfad_468" data-name="Pfad 468" d="M340.037,58.884A10.527,10.527,0,1,0,329.51,48.357,10.525,10.525,0,0,0,340.037,58.884Zm-2.381-17.141,3.753-.225,1,13.6-2.846.073L338.933,44l-1.706,2.026-1.2-2.432,1.633-1.859Z" transform="translate(-123.045 -10.366)" fill="#ce0054"/>
      <path id="Pfad_469" data-name="Pfad 469" d="M341.384,45.4l.639,11.188,2.846-.073-1-13.6-3.753.225L338.48,45l1.2,2.432Z" transform="translate(-125.503 -11.76)" fill="#fff"/>
      <path id="Pfad_470" data-name="Pfad 470" d="M388.487,88.48a10.527,10.527,0,1,0,10.527,10.527A10.525,10.525,0,0,0,388.487,88.48Zm4.937,9.511a3.649,3.649,0,0,1-2.483,1.829q-.207.054-.98.174c-.523.087-1.241.2-2.163.327-1.125.16-1.771.457-1.938.878a3.539,3.539,0,0,0-.225,1.365l7.376.494-.211,2.773-10.171-.465v-.174c0-.1.007-.479.029-1.14.014-.378.029-.748.044-1.118s.029-.748.044-1.125a5.019,5.019,0,0,1,.486-2.084,3.284,3.284,0,0,1,2.461-1.452c.53-.044,1.06-.094,1.583-.138s1.053-.087,1.575-.138c1.118-.131,1.8-.472,2.055-1.031a1.33,1.33,0,0,0,.123-.574c0-.7-.958-1.183-2.882-1.445-.566-.08-1.154-.138-1.771-.174s-1.263-.044-1.953-.029l-.189-3.085a24.846,24.846,0,0,1,5.721.922c2.57.813,3.855,2.047,3.855,3.688a3.978,3.978,0,0,1-.37,1.721Z" transform="translate(-136.32 -24.244)" fill="#ce0054"/>
      <path id="Pfad_471" data-name="Pfad 471" d="M391.705,93.782a24.846,24.846,0,0,0-5.721-.922l.189,3.085c.682-.015,1.336,0,1.953.029s1.205.094,1.771.174c1.924.261,2.882.748,2.882,1.445a1.307,1.307,0,0,1-.123.574c-.254.559-.944.9-2.055,1.031-.523.051-1.053.094-1.575.138s-1.053.087-1.583.138a3.3,3.3,0,0,0-2.461,1.452,5.137,5.137,0,0,0-.486,2.084c-.015.378-.029.748-.044,1.125s-.029.748-.044,1.118c-.022.661-.029,1.038-.029,1.14v.174l10.171.465.211-2.773-7.376-.494a3.407,3.407,0,0,1,.225-1.365c.167-.421.813-.719,1.938-.878.922-.138,1.641-.247,2.163-.327s.849-.145.98-.174a3.665,3.665,0,0,0,2.483-1.829,3.932,3.932,0,0,0,.37-1.721c0-1.641-1.285-2.875-3.855-3.688Z" transform="translate(-138.079 -25.444)" fill="#fff"/>
      <path id="Pfad_472" data-name="Pfad 472" d="M387.809,189.42l-.087-.9c-.378.16-.733.312-1.082.465A10.721,10.721,0,0,0,387.809,189.42Z" transform="translate(-138.699 -51.656)" fill="#ce0054"/>
      <path id="Pfad_473" data-name="Pfad 473" d="M350.53,241.288l4.479-.414-.465-5.474Z" transform="translate(-128.804 -64.501)" fill="#ce0054"/>
      <path id="Pfad_474" data-name="Pfad 474" d="M350.207,226.6a10.527,10.527,0,1,0,10.527,10.527A10.525,10.525,0,0,0,350.207,226.6Zm1.844,17.5-.254-3.013-6.766.588-.2-2.563,5.561-8.494,3.369-.472,1.191,13.6-2.9.363Z" transform="translate(-125.831 -62.09)" fill="#ce0054"/>
      <path id="Pfad_475" data-name="Pfad 475" d="M352.321,231.939l-5.561,8.494.2,2.563,6.766-.588.254,3.013,2.9-.363-1.191-13.6-3.369.472Zm-2.824,8.269,4.015-5.888.465,5.474Z" transform="translate(-127.771 -63.422)" fill="#fff"/>
      <rect id="Rechteck_9" data-name="Rechteck 9" width="38.245" height="13.649" transform="translate(232.158 28.96)" fill="#b6fff8"/>
      <rect id="Rechteck_10" data-name="Rechteck 10" width="38.245" height="13.649" transform="translate(47.712 33.018)" fill="#b6fff8"/>
      <path id="Pfad_476" data-name="Pfad 476" d="M374.55,245.1h14.259l-1.343-13.649H374.55Z" transform="translate(-135.386 -63.419)" fill="#b6fff8"/>
      <rect id="Rechteck_11" data-name="Rechteck 11" width="38.245" height="13.649" transform="translate(42.913 171.349)" fill="#b6fff8"/>
      <path id="Pfad_477" data-name="Pfad 477" d="M414.18,93.24v13.649h18.556a115.8,115.8,0,0,1-2.759-13.649Z" transform="translate(-146.245 -25.548)" fill="#b6fff8"/>
      <rect id="Rechteck_12" data-name="Rechteck 12" width="24.698" height="13.649" transform="translate(33.889 132.428)" fill="#b6fff8"/>
      <rect id="Rechteck_13" data-name="Rechteck 13" width="24.698" height="13.649" transform="translate(29.461 69.717)" fill="#b6fff8"/>
      <path id="Pfad_478" data-name="Pfad 478" d="M320.448,156.505c-2.309-.254-4.835-.574-7.449-.944-5.184-.726-10.7-1.626-15.536-2.49a12.827,12.827,0,0,0,.116-2.73c-4.77,7.064-10.062.508-13.583-2.831l2.94,3.136s4.16,2.933-2.49,3.006c-.116-.123-.24-.261-.356-.385a.882.882,0,0,1-.392.232c.908.871,1.474,1.7,1.336,2.338a1.3,1.3,0,0,1-.791,1.074,1.575,1.575,0,0,1,.653,1.1c-.044.871-.552,1.241-1.379,1.307.537.436.878.871.857,1.278a1.248,1.248,0,0,1-1.263,1.292,11.671,11.671,0,0,0,9.344-1.024c3.427,1.619,6.991,3.281,10.629,4.93,5.547,2.526,11.231,5,16.763,7.187.407-5.351,2.868-12.066,6.04-15.87-1.924-.218-3.891-.443-5.43-.61Z" transform="translate(-110.331 -40.419)" fill="#ecb9ae"/>
      <path id="Pfad_479" data-name="Pfad 479" d="M404.651,131.424c.073-.087.16-.167.24-.254-11.318,3.819-28.611,15.42-39.922,25.787a109.011,109.011,0,0,0-19.268-4.494c-1.227-.116-3.209-.341-5.314-.581-.225.232-.45.486-.668.748-3.173,3.8-5.634,10.52-6.04,15.87-.022.327-.044.653-.058.973,13.634,5.358,26.491,8.225,33.672,5.714v.051s1.844-.7,4.828-1.975c.349-.145.7-.3,1.082-.465l-1.249-12.741,18.854-.61a38.48,38.48,0,0,1,1.416-5.285,74.19,74.19,0,0,1,12.444-22.745Z" transform="translate(-124.171 -35.941)" fill="#24ffef"/>
      <path id="Pfad_480" data-name="Pfad 480" d="M459.068,130.833a4.011,4.011,0,0,1-.7-.6,18.311,18.311,0,0,1-.7,2.156,9.177,9.177,0,0,0,5.677,2.272,11.685,11.685,0,0,0,7.362-2.309l-.109-.479a6.831,6.831,0,0,1-.116-1.147l-.131.087c-3.078,1.83-8.138,2.069-11.275.022Z" transform="translate(-158.159 -35.684)" fill="#009b88"/>
      <path id="Pfad_481" data-name="Pfad 481" d="M482.849,134.188a2.466,2.466,0,0,1-.639.77.368.368,0,0,1,.123.1,1.561,1.561,0,0,1,.1.414c3.144-4.2,5.772-7.245,6.628-8.218-1.249-.414-2.483-.791-3.681-1.147-.16-.044-.312-.094-.472-.138a15.943,15.943,0,0,1-2.062,8.211Z" transform="translate(-164.886 -34.517)" fill="#009b88"/>
      <path id="Pfad_482" data-name="Pfad 482" d="M453.418,174.811a63.244,63.244,0,0,1,.044-8.6c.552-8.233,5.91-18.012,11.173-25.773a15.1,15.1,0,0,1,.472-3.2c-.392-.174-.581-.813-.661-1.445a1.172,1.172,0,0,1,.436-1.082,2.5,2.5,0,0,1-.443-.537,10.773,10.773,0,0,1-1.154-3.165,11.641,11.641,0,0,1-7.362,2.309,9.219,9.219,0,0,1-5.677-2.272,20.345,20.345,0,0,1-.958,2.069,2.466,2.466,0,0,1-.639.77.367.367,0,0,1,.123.1,2.294,2.294,0,0,1,.051,1.336,1.185,1.185,0,0,1-.624.755,13.948,13.948,0,0,1-1.329,13.177s-2.781-6.948-1.183-12.915c-.4-.174-.581-.813-.661-1.445a1.172,1.172,0,0,1,.436-1.082,2.5,2.5,0,0,1-.443-.537,11.272,11.272,0,0,1-1.256-3.644,6.564,6.564,0,0,1,.624-4.283.055.055,0,0,0-.015-.029c-.08.007-.16.022-.24.036,0,0-11.34,18.9-13.533,32.074l15.188-.494L447.1,173.4c.094-.058.2-.116.3-.167a5.047,5.047,0,0,0,.218.711,16.68,16.68,0,0,0,5.815.871Z" transform="translate(-150.744 -34.338)" fill="#009b88"/>
      <path id="Pfad_483" data-name="Pfad 483" d="M455.66,195.63a53.6,53.6,0,0,0,3.862,5.8,9.038,9.038,0,0,1,1.539,3.652c.385.022.77.036,1.154.058a55.517,55.517,0,0,1-1.648-8.051,16.236,16.236,0,0,1-4.908-1.459Z" transform="translate(-157.611 -53.604)" fill="#009b88"/>
      <path id="Pfad_484" data-name="Pfad 484" d="M460.118,196.174c-.116-.951-.211-1.96-.283-3.013a16.68,16.68,0,0,1-5.815-.871,18.212,18.212,0,0,0,1.191,2.425A16.171,16.171,0,0,0,460.118,196.174Z" transform="translate(-157.161 -52.689)" fill="#009b88"/>
      <path id="Pfad_485" data-name="Pfad 485" d="M529.251,565.293q-1.078,1.427-2.171,2.831c-2.149,2.766-4.254,5.568-6.563,8.211a35.74,35.74,0,0,1-5.83,5.88,20.774,20.774,0,0,1-7.093,2.926,67.922,67.922,0,0,1-11.884,1.917.992.992,0,0,1-.929-.276.6.6,0,0,1-.051-.094v1.329a1.457,1.457,0,0,0,.189.849.98.98,0,0,0,.929.276,68.617,68.617,0,0,0,11.885-1.917c2.476-.624,5.837-1.575,7.986-3.086a38.241,38.241,0,0,0,6.3-5.808c1.59-1.822,2.94-3.586,4.327-5.409,1.162,1.423,1.59,5.336,2.33,6.374,1.031,1.437,3.826-.029,2.693-1.35-1.082-1.249-.334-12.168-.254-13.213,0-.015.007-.022.007-.036a13.356,13.356,0,0,0-.051-4.3,12.7,12.7,0,0,1-.138,1.568,9.692,9.692,0,0,1-1.684,3.318Z" transform="translate(-168.316 -153.553)" fill="#ba004c"/>
      <path id="Pfad_486" data-name="Pfad 486" d="M434.789,422.674c-.051,30.3,2.831,65.9,3.681,70.015h0l.966,20.023c-1.989,3.768-3.209,8.022-5.263,12.364-.937,1.989-2.933,5.852-4.392,7.3a19.034,19.034,0,0,1,3.064,3.144c9.939-3.833,11.318-15.13,16.553-23.268a5.236,5.236,0,0,1,.995-1.1c-.29-.254-.588-.486-.886-.711.646-5.067,1.169-14.68,1.365-19.406h0s4.291-35.552,4.341-60.708q0-2.548-.051-4.937A129.622,129.622,0,0,1,434.8,422.34v.348Z" transform="translate(-150.519 -115.724)" fill="#ffd6ca"/>
      <path id="Pfad_487" data-name="Pfad 487" d="M506.157,489.147h0l4.988,20.974c-1.706,4.625-1.909,9.685-3.18,15.093-.5,2.142-1.648,6.331-2.773,8.059a19.258,19.258,0,0,1,3.652,2.432c8.922-5.823,7.913-17.163,11.333-26.216a5.414,5.414,0,0,1,.741-1.278.784.784,0,0,1-.08-.044c.116-3.92-.748-13.358-2.556-23.66a.994.994,0,0,0,.051-.116s-2.926-37.5-10.374-62.762a92.567,92.567,0,0,1-19.8,3.55c6.875,28.524,16.778,60.468,18,63.967Z" transform="translate(-166.516 -115.529)" fill="#ffd6ca"/>
      <path id="Pfad_488" data-name="Pfad 488" d="M521.925,542.178c-3.419,9.053-2.41,20.386-11.333,26.216a19.032,19.032,0,0,0-3.652-2.432,7.98,7.98,0,0,1-.828,1.074,16.32,16.32,0,0,1-5.8,4.523c-2.367.995-4.813,2.621-5.539,5.452a13.748,13.748,0,0,0-.247,3.594,1.618,1.618,0,0,0,.138.748.391.391,0,0,0,.051.094.98.98,0,0,0,.929.276,68.618,68.618,0,0,0,11.885-1.917,20.919,20.919,0,0,0,7.093-2.926,36.033,36.033,0,0,0,5.83-5.881c2.309-2.643,4.414-5.445,6.563-8.211.733-.937,1.452-1.888,2.171-2.831a9.694,9.694,0,0,0,1.684-3.318,11.439,11.439,0,0,0,.138-1.568c.189-5.721-3.485-11.42-8.356-14.171a5.173,5.173,0,0,0-.741,1.278Z" transform="translate(-168.257 -148.21)" fill="#009b88"/>
      <path id="Pfad_489" data-name="Pfad 489" d="M446.946,570.554c-.9.777-1.808,1.554-2.715,2.316-2.679,2.258-5.322,4.559-8.131,6.657a35.542,35.542,0,0,1-6.926,4.53,20.905,20.905,0,0,1-7.55,1.379,68.594,68.594,0,0,1-12.022-.6.987.987,0,0,1-.849-.465.605.605,0,0,1-.029-.109c-.1.428-.189.864-.276,1.3a1.482,1.482,0,0,0,.007.871.98.98,0,0,0,.849.465,68.634,68.634,0,0,0,12.022.6c2.548-.094,6.04-.319,8.451-1.358a38.3,38.3,0,0,0,7.376-4.363c1.938-1.445,3.623-2.889,5.358-4.385.835,1.633.436,5.547.951,6.723.7,1.619,3.753.77,2.918-.755-.8-1.452,2.214-11.964,2.5-12.974,0-.015.014-.022.014-.036a13.458,13.458,0,0,0,.849-4.211,11.2,11.2,0,0,1-.465,1.5,9.631,9.631,0,0,1-2.345,2.9Z" transform="translate(-144.657 -155.126)" fill="#ba004c"/>
      <path id="Pfad_490" data-name="Pfad 490" d="M443.653,545.766c-5.234,8.138-6.614,19.435-16.553,23.268a19.032,19.032,0,0,0-3.064-3.144,9.05,9.05,0,0,1-1.031.879,16.163,16.163,0,0,1-6.614,3.209c-2.526.479-5.256,1.554-6.556,4.174a13.479,13.479,0,0,0-.987,3.463,1.7,1.7,0,0,0-.022.762.606.606,0,0,0,.029.109.98.98,0,0,0,.849.465,68.634,68.634,0,0,0,12.022.6,20.933,20.933,0,0,0,7.55-1.379,35.541,35.541,0,0,0,6.926-4.53c2.81-2.1,5.452-4.4,8.131-6.657q1.361-1.154,2.715-2.316a9.856,9.856,0,0,0,2.345-2.9,13.805,13.805,0,0,0,.465-1.5c1.379-5.554-1.031-11.9-5.213-15.6a5.236,5.236,0,0,0-.995,1.1Z" transform="translate(-144.768 -149.243)" fill="#009b88"/>
      <path id="Pfad_491" data-name="Pfad 491" d="M446.424,223.412c-.029-.37-.065-.726-.109-1.089-1.975-.45-3.862-.9-5.6-1.343a9.62,9.62,0,0,1-3.187,2.352l2.447,30.637-13.155.348c.094,27.66-4.806,55.742-14.629,80.876a8.5,8.5,0,0,1-.436,1.089s-11.536-.995-17.663-1.525c-2.055,5.786-3.87,11.021-5.307,15.362,6.338,7.195,19.348,13.4,34.782,17.017a128.771,128.771,0,0,0,20.364,3.056,119.829,119.829,0,0,0,17.01-.007,92.482,92.482,0,0,0,19.8-3.55,59.368,59.368,0,0,0,21.874-11.558c-.726-4.341-2.163-11.188-4.073-19.413-14.643,7.884-36.619,9.1-36.619,9.1S447.164,232.618,446.424,223.4Z" transform="translate(-139.285 -60.55)" fill="#009b88"/>
      <path id="Pfad_492" data-name="Pfad 492" d="M468.027,222.83q.065.534.109,1.089c.741,9.22,15.493,121.364,15.493,121.364s21.976-1.212,36.619-9.1A29.8,29.8,0,0,0,529,329.42c-9.961-31.356-34.673-76.36-35.784-98.125-.051-1.016-.065-2.076-.058-3.18-7.333-1.554-17-3.427-25.141-5.285Z" transform="translate(-160.997 -61.057)" fill="#b6fff8"/>
      <path id="Pfad_493" data-name="Pfad 493" d="M476.858,135.842a2.341,2.341,0,0,1-.051.915,1.185,1.185,0,0,1-.624.755,13.948,13.948,0,0,1-1.329,13.177,26.414,26.414,0,0,1-1.663-9.707c-5.263,7.761-10.621,17.54-11.173,25.773a65.7,65.7,0,0,0-.044,8.6c.073,1.06.167,2.062.283,3.013a55.517,55.517,0,0,0,1.648,8.051c6.955.378,14.876.966,21.293.69,1-.044,4.53.051,7.7.123.806-5.089,1.888-10.4,3.078-15.558-8.371-11.471-14.055-23.82-10.251-32.895a6.917,6.917,0,0,1,.6-1.089,10.788,10.788,0,0,1,13.562-3.782,32.007,32.007,0,0,0-16.11-6.614s-.109.116-.3.341c-.864.98-3.492,4.022-6.628,8.218Z" transform="translate(-159.308 -34.878)" fill="#b6fff8"/>
      <path id="Pfad_494" data-name="Pfad 494" d="M428.6,128a6.371,6.371,0,0,0-2.127,1.539c-.08.087-.16.167-.24.254a74,74,0,0,0-12.444,22.745,38.765,38.765,0,0,0-1.416,5.285l13.22-.428c2.185-13.17,13.533-32.074,13.533-32.074-2.418-.69-7.964,1.546-10.527,2.679Z" transform="translate(-145.749 -34.303)" fill="#b6fff8"/>
      <path id="Pfad_495" data-name="Pfad 495" d="M318.021,274.651c9.823-25.141,14.723-53.215,14.629-80.876l-7.2.2a148.543,148.543,0,0,1-5.249,19.435H72.3L60.62,11.986l296.474-1.474-2.526,24.822a13.071,13.071,0,0,1,1.423.748,8.495,8.495,0,0,1,3.928.755c5.176,2.12,8.908,11.565,9.14,20.807L374.9,0,45.12,1.648,58.108,227.033H315.415c-8.581,23.232-19.232,46.863-19.232,46.863l3.732.319c6.127.53,17.663,1.525,17.663,1.525a7.094,7.094,0,0,0,.436-1.089Z" transform="translate(-45.12)" fill="#b6fff8"/>
      <path id="Pfad_496" data-name="Pfad 496" d="M463.908,107.829a49.192,49.192,0,0,1-5.285,2.781c-.007.08-.022.152-.029.232a12.854,12.854,0,0,1-.573,4.929,2.793,2.793,0,0,1,.74,1.633,11.834,11.834,0,0,1-.3,4.864,4.343,4.343,0,0,0,.7.6c3.136,2.055,8.189,1.808,11.275-.022l.131-.087a6.684,6.684,0,0,1,.741-3.144,12.965,12.965,0,0,1-.871-2.9,6.581,6.581,0,0,1,.661-4.349c0-.08-.015-.16-.022-.247-.131-.465-.254-.944-.341-1.416a6.585,6.585,0,0,1,.363-3.717c.007-.152.015-.3.029-.457a20.907,20.907,0,0,1-.5-2.839,2.614,2.614,0,0,1-.508-2.447.674.674,0,0,0,.029-.094,14.792,14.792,0,0,1-6.236,6.686Z" transform="translate(-158.257 -27.716)" fill="#ecb9ae"/>
      <path id="Pfad_497" data-name="Pfad 497" d="M456.068,120.984a2.793,2.793,0,0,0-.741-1.633,12.853,12.853,0,0,0,.574-4.929,2.094,2.094,0,0,0-.029-.211,25.362,25.362,0,0,1-7.289,1.721,6.551,6.551,0,0,0-.269,3.478,13.138,13.138,0,0,0,.857,2.868.055.055,0,0,0,.015.029,6.571,6.571,0,0,0-.624,4.283,11.273,11.273,0,0,0,1.256,3.644,2.464,2.464,0,0,0,.443.537,1.163,1.163,0,0,1,.777-.269,7.366,7.366,0,0,1,2.425.341,2.466,2.466,0,0,0,.639-.77,21.907,21.907,0,0,0,.958-2.069,17.884,17.884,0,0,0,.7-2.156,12.087,12.087,0,0,0,.3-4.864Z" transform="translate(-155.565 -31.294)" fill="#99504b"/>
      <path id="Pfad_498" data-name="Pfad 498" d="M451.466,140.455a.52.52,0,0,1-.283-.044c-1.6,5.968,1.183,12.915,1.183,12.915A13.948,13.948,0,0,0,453.7,140.15a1.185,1.185,0,0,1-.414.123c-.523.051-1.212.116-1.815.189Z" transform="translate(-156.248 -38.402)" fill="#99504b"/>
      <path id="Pfad_499" data-name="Pfad 499" d="M451.658,136.647a1.243,1.243,0,0,0-.777.269,1.2,1.2,0,0,0-.436,1.082c.08.632.269,1.27.661,1.445a.52.52,0,0,0,.283.044c.6-.073,1.292-.138,1.815-.189a1.3,1.3,0,0,0,.414-.123,1.164,1.164,0,0,0,.624-.755,2.3,2.3,0,0,0-.051-1.336.257.257,0,0,0-.123-.1,7.366,7.366,0,0,0-2.425-.341Z" transform="translate(-156.179 -37.44)" fill="#4b3d51"/>
      <path id="Pfad_500" data-name="Pfad 500" d="M435.024,78.535a6.593,6.593,0,0,1,2.592-.719.736.736,0,0,1,.878.5.723.723,0,0,1-.5.878,4.52,4.52,0,0,0-2.439.69.7.7,0,0,1-.443.181c.123,1.764.312,3.55.552,5.322a115.8,115.8,0,0,0,2.759,13.649c.327,1.234.653,2.418.98,3.514a48.975,48.975,0,0,0,5.554-.225,25.184,25.184,0,0,0,7.289-1.721l.058-.022a49.191,49.191,0,0,0,5.285-2.781,14.83,14.83,0,0,0,6.236-6.686c.116-.341.218-.668.312-.98,5.815-.051,10.854-9.01,8.4-12.226-2.614-3.419-9.307,5.474-9.307,5.474-3.833-1.452-5.314-16.887-5.481-18.774-4,2.7-14.818,9.554-22.789,10.5-.015,1.118.014,2.258.065,3.4Zm1.3,3.216a1,1,0,1,1-.378,1.365A1,1,0,0,1,436.323,81.751Zm11.7,1.452a1,1,0,1,1,.378-1.365A1,1,0,0,1,448.026,83.2Zm.182,10.585c.661-.319,1.241.668.581.987a14.1,14.1,0,0,1-6.12,1.452.574.574,0,0,1,0-1.147A12.736,12.736,0,0,0,448.208,93.788Zm16.7-9.692a6.708,6.708,0,0,1,5.285-4.24c.726-.1,1.031,1,.3,1.1a5.6,5.6,0,0,0-4.487,3.441c-.269.675-1.379.378-1.1-.3Zm-19.3-7.18c2.664-.2,6.171-.116,7.594,2.49.443.806-.791,1.525-1.234.719-1.125-2.055-4.291-1.946-6.367-1.786-.915.073-.908-1.358,0-1.423Zm-4.959,1.22c.588-1,1.372.341,1.488.886a2.791,2.791,0,0,1,.073.581c.044,3.245.109,6.49.131,9.736a2.381,2.381,0,0,1-.123.937c-.465,1.089-2.461.922-3.4.835a1.4,1.4,0,0,1-.973-.45,1.225,1.225,0,0,1-.211-.951,4.95,4.95,0,0,1,.581-1.539A21.2,21.2,0,0,0,440.5,78.8a1.527,1.527,0,0,1,.145-.675Z" transform="translate(-151.937 -17.704)" fill="#ffd6ca"/>
      <path id="Pfad_501" data-name="Pfad 501" d="M465.75,49.57a8.5,8.5,0,0,0-3.928-.755,13.778,13.778,0,0,0-1.423-.748,20.007,20.007,0,0,0-8.61-1.568c-16.03.2-23.522,13.467-19.246,23.769q.7-.022,1.438-.109c7.971-.944,18.781-7.8,22.789-10.5.167,1.888,1.648,17.322,5.481,18.774,0,0,6.686-8.893,9.307-5.474,2.461,3.216-2.585,12.175-8.4,12.226-.094.312-.2.639-.312.98a.674.674,0,0,0-.029.094,2.6,2.6,0,0,0,.508,2.447,21.105,21.105,0,0,0,.5,2.839c.022.087.044.167.065.254-.029.073-.065.138-.087.211a6.591,6.591,0,0,0-.363,3.717c.094.472.211.951.341,1.416.015.058.036.123.051.181-.015.022-.022.044-.036.065a6.625,6.625,0,0,0-.661,4.349,13.6,13.6,0,0,0,.871,2.9,6.664,6.664,0,0,0-.74,3.144,6.207,6.207,0,0,0,.116,1.147c.029.16.073.319.109.479a10.5,10.5,0,0,0,1.154,3.165,2.466,2.466,0,0,0,.443.537,1.163,1.163,0,0,1,.777-.269,7.367,7.367,0,0,1,2.425.341,2.466,2.466,0,0,0,.639-.77,15.944,15.944,0,0,0,2.062-8.211c-.022-.29-.051-.588-.1-.878a2.793,2.793,0,0,0-.74-1.633,12.418,12.418,0,0,0,.494-5.554,4.252,4.252,0,0,0-.152-.617,12.37,12.37,0,0,0,.45-5.394,4.034,4.034,0,0,0-.109-.486,11.967,11.967,0,0,0,.29-4.508,18.321,18.321,0,0,0,2.94-6.519A31.14,31.14,0,0,0,474.9,70.4c-.232-9.242-3.971-18.687-9.14-20.807Z" transform="translate(-150.952 -12.74)" fill="#99504b"/>
      <path id="Pfad_502" data-name="Pfad 502" d="M439.215,93.158a4.948,4.948,0,0,0-.581,1.539,1.248,1.248,0,0,0,.211.951,1.4,1.4,0,0,0,.973.45c.937.087,2.94.254,3.4-.835a2.4,2.4,0,0,0,.123-.937c-.022-3.245-.08-6.49-.131-9.736a2.793,2.793,0,0,0-.073-.581c-.116-.537-.9-1.88-1.488-.886a1.433,1.433,0,0,0-.145.675,21.3,21.3,0,0,1-2.287,9.365Z" transform="translate(-152.941 -22.679)" fill="#f4c0b5"/>
      <path id="Pfad_503" data-name="Pfad 503" d="M451.409,87.782a1,1,0,1,0,1.365.378A1.008,1.008,0,0,0,451.409,87.782Z" transform="translate(-156.307 -24.018)" fill="#ba004c"/>
      <path id="Pfad_504" data-name="Pfad 504" d="M437.637,89.914a1,1,0,1,0-1.365-.378A1.006,1.006,0,0,0,437.637,89.914Z" transform="translate(-152.263 -24.125)" fill="#ba004c"/>
      <path id="Pfad_505" data-name="Pfad 505" d="M449.365,82.966c2.076-.16,5.242-.276,6.367,1.786.443.806,1.67.087,1.234-.719-1.43-2.606-4.93-2.7-7.594-2.49-.907.073-.915,1.5,0,1.423Z" transform="translate(-155.701 -22.324)" fill="#4b3d51"/>
      <path id="Pfad_506" data-name="Pfad 506" d="M435.322,84.865a4.5,4.5,0,0,1,2.439-.69.719.719,0,0,0,.5-.878.736.736,0,0,0-.878-.5,6.593,6.593,0,0,0-2.592.719,4.882,4.882,0,0,0-.479.341c-.552.479-.022,1.22.566,1.191a.659.659,0,0,0,.443-.181Z" transform="translate(-151.698 -22.684)" fill="#4b3d51"/>
      <path id="Pfad_507" data-name="Pfad 507" d="M477.287,90.162a5.6,5.6,0,0,1,4.487-3.441c.726-.1.421-1.205-.3-1.1a6.7,6.7,0,0,0-5.285,4.24c-.276.682.835.98,1.1.3Z" transform="translate(-163.222 -23.458)" fill="#f2bbaa"/>
      <path id="Pfad_508" data-name="Pfad 508" d="M478.228,141.682a.52.52,0,0,1-.283-.044,14.64,14.64,0,0,0-.472,3.2,26.413,26.413,0,0,0,1.663,9.707,13.948,13.948,0,0,0,1.329-13.177,1.186,1.186,0,0,1-.414.123c-.523.051-1.212.116-1.815.189Z" transform="translate(-163.582 -38.736)" fill="#99504b"/>
      <path id="Pfad_509" data-name="Pfad 509" d="M477.2,139.24c.08.632.269,1.27.661,1.445a.52.52,0,0,0,.283.044c.6-.073,1.292-.138,1.815-.189a1.3,1.3,0,0,0,.414-.123,1.164,1.164,0,0,0,.624-.755,2.349,2.349,0,0,0,.051-.915,1.423,1.423,0,0,0-.1-.414.257.257,0,0,0-.123-.1,7.366,7.366,0,0,0-2.425-.341,1.243,1.243,0,0,0-.777.269,1.2,1.2,0,0,0-.436,1.082Z" transform="translate(-163.506 -37.783)" fill="#4b3d51"/>
      <path id="Pfad_510" data-name="Pfad 510" d="M445.36,107.215a14.1,14.1,0,0,0,6.12-1.452c.661-.327.08-1.314-.581-.987a12.635,12.635,0,0,1-5.539,1.292A.574.574,0,0,0,445.36,107.215Z" transform="translate(-154.636 -28.691)" fill="#f2bbaa"/>
      <path id="Pfad_511" data-name="Pfad 511" d="M263.222,129.959c2.483,1.844,7.652,5.96,7.013,7.775a1.872,1.872,0,0,1-.45.762c.116.131.247.261.356.385,6.643-.073,2.49-3.006,2.49-3.006s-1.1-1.176-2.94-3.136a7.477,7.477,0,0,0-2.134-1.6,3.251,3.251,0,0,1-2.084-2.889c-6.244-6.621-15.507-16.371-23.341-24.306-4.095-4.145-7.8-7.8-10.476-10.251a.43.43,0,0,0-.617.6c2.534,2.94,6.374,7.4,10.723,12.422,6.352,7.333,13.787,15.877,19.827,22.695a2.843,2.843,0,0,1,1.619.552Z" transform="translate(-96.033 -25.641)" fill="#4b3d51"/>
      <path id="Pfad_512" data-name="Pfad 512" d="M278.506,140.28a3.247,3.247,0,0,0,2.084,2.889,7.379,7.379,0,0,1,2.134,1.6c3.521,3.34,8.814,9.9,13.583,2.831a10.44,10.44,0,0,0-2.614-3.732,11.873,11.873,0,0,0-6-2.962,29.146,29.146,0,0,1-5.9-1.692,10.729,10.729,0,0,1-3.071-1.742,8.012,8.012,0,0,0-.218,2.8Z" transform="translate(-109.059 -37.668)" fill="#ffd6ca"/>
      <path id="Pfad_513" data-name="Pfad 513" d="M280.8,151.257c.639-1.815-4.53-5.931-7.013-7.775a2.843,2.843,0,0,0-1.619-.552,2.623,2.623,0,0,0-1.917.733c-1.118,1.111-.2,2.454,1.358,3.71a2.577,2.577,0,0,0-1.7.951c-1.118,1.416.1,2.766,2.018,3.9-.835.044-1.612.254-1.873.733-.45.828.181,1.742,1.234,2.534a1.907,1.907,0,0,0-.407.515c-.741,1.365.574,2.657,2.418,3.434a10.006,10.006,0,0,0,1.5.486c.109.029.218.051.327.08a14.358,14.358,0,0,0,4.247.639,1.257,1.257,0,0,0,1.263-1.292c.022-.407-.319-.842-.857-1.278.828-.073,1.336-.436,1.379-1.307a1.575,1.575,0,0,0-.653-1.1,1.277,1.277,0,0,0,.791-1.074c.145-.639-.421-1.467-1.336-2.338a.844.844,0,0,0,.392-.232,1.956,1.956,0,0,0,.45-.762Z" transform="translate(-106.597 -39.164)" fill="#ffd6ca"/>
      <path id="Pfad_514" data-name="Pfad 514" d="M418.474,169.356l-13.22.428-18.854.61,1.249,12.741.087.9,2.977,30.267,1.343,13.649,1.278,12.974,25.628-.682,7.2-.2,13.155-.348-2.447-30.637c-2.447,1.118-5.852,1.416-10.563-.08l-10.186-1.067c-.755-.051-3.572-.77-4.007-1.387-1.626-2.316,6.345-1.336,10.28-.733-.087-.2-.167-.407-.232-.61l-13.228-4.167a1.68,1.68,0,0,1-1.176-1.292c-.53-3.34,10.607.247,14.113,1.452a11.15,11.15,0,0,1,.24-1.191l-12.923-5.808a1.444,1.444,0,0,1-.878-1.329c.145-3.5,13.358,2.577,15.282,3.485.247-.457.5-.886.755-1.278L411.8,189.423a2.308,2.308,0,0,1-1.292-1.416c-1.343-4.45,15.943,4.276,15.943,4.276s4.973.639,8.552,1.539c-1.016-2.9-2.076-7.173-.022-8.494l-1.314-16.458-15.188.494Z" transform="translate(-138.633 -46.271)" fill="#4b3d51"/>
      <path id="Pfad_515" data-name="Pfad 515" d="M481.842,204.8c-.5-.007-1.024-.022-1.554-.029-3.173-.065-6.7-.167-7.7-.123-6.418.276-14.331-.312-21.293-.69-.392-.022-.77-.044-1.154-.058a9.14,9.14,0,0,0-1.539-3.652,54.685,54.685,0,0,1-3.862-5.8,18.663,18.663,0,0,1-1.191-2.425,5.047,5.047,0,0,1-.218-.711,1.971,1.971,0,0,0-.3.167c-2.055,1.321-.995,5.6.022,8.494-3.579-.9-8.552-1.539-8.552-1.539s-17.286-8.726-15.943-4.276a2.328,2.328,0,0,0,1.292,1.416l12.552,5.634c-.254.392-.508.828-.755,1.278-1.924-.908-15.137-6.984-15.282-3.485a1.426,1.426,0,0,0,.878,1.329l12.923,5.808a11.143,11.143,0,0,0-.24,1.191c-3.507-1.205-14.643-4.792-14.113-1.452a1.668,1.668,0,0,0,1.176,1.292l13.228,4.167c.065.2.145.407.232.61-3.935-.6-11.906-1.583-10.28.733.436.624,3.252,1.343,4.007,1.387l10.186,1.067c4.712,1.5,8.117,1.191,10.563.08a9.619,9.619,0,0,0,3.187-2.352c1.742.443,3.63.893,5.6,1.343,8.146,1.851,17.809,3.724,25.141,5.285l.1.022a32.465,32.465,0,0,1,2.882-14.7Z" transform="translate(-146.687 -52.42)" fill="#ffd6ca"/>
      <path id="Pfad_516" data-name="Pfad 516" d="M537.8,198.754c-.632-6.8-4.69-38.057-27.3-61.513a10.851,10.851,0,0,0-15.6,2.548,6.918,6.918,0,0,0-.6,1.089c-3.8,9.075,1.88,21.431,10.251,32.895A142.072,142.072,0,0,0,515.029,186.4c-2.113.247-4.008.486-5.4.559-1.227.065-3.223.152-5.343.232a15.7,15.7,0,0,0-1.263,2.163,32.369,32.369,0,0,0-2.882,14.7c.029.523.065,1.045.123,1.539,16.117,3.637,30.775,4.312,36.4-1.038a3.934,3.934,0,0,0,1.154-2.214,11.708,11.708,0,0,0-.022-3.594Z" transform="translate(-167.867 -36.988)" fill="#24ffef"/>
    </g>
  </g>
</svg>
