<svg xmlns="http://www.w3.org/2000/svg" width="400" height="400" viewBox="0 0 400 400">
  <g id="cnnhs_logo_standard" transform="translate(200 200)">
    <g id="Gruppe_91" data-name="Gruppe 91" transform="translate(-200 -200)">
      <g id="Gruppe_1" data-name="Gruppe 1">
        <circle id="Ellipse_1" data-name="Ellipse 1" cx="200" cy="200" r="200" fill="#ffb500"/>
      </g>
      <g id="Gruppe_14" data-name="Gruppe 14" transform="translate(32.709 110.717)">
        <g id="Gruppe_2" data-name="Gruppe 2" transform="translate(2.797 118.469)" opacity="0.5">
          <path id="Pfad_1" data-name="Pfad 1" d="M107.02,360.8s-10.427,6.6-11.529,7.509A16.979,16.979,0,0,1,93,369.948l-.069-.454s-1.538,1.176-2.268,1.654-.818-.162-.818-.162-2.726,1.448-3.241,1.649-.322-.547-.322-.547-2.806,1.382-3.306,1.482a15.012,15.012,0,0,1-2.292-.067,26.06,26.06,0,0,1,1.7-2.008c.589-.566,1.083-1.1,1.083-1.1l-1.222.188,3.27-1.852.713-.662s10.157-4.25,11.608-4.816a7.945,7.945,0,0,1,2.032-.6s-14.392,3.6-16.322,4.349l1.322-.829s-2.838,1-4.775,1.566l1.034-.852s-5.189,1.543-7.51,1.584c.871-.532,1.68-1.04,1.68-1.04s-8.418,1.01-10.867.908a21.827,21.827,0,0,0,2.164-.908,88.132,88.132,0,0,1-11.645-2.378c6.191-1.646,9.73-2.9,9.73-2.9l-1.823-.25a15.774,15.774,0,0,1,4.551-.686c-1.1-.6-1.875-.934-1.875-.934s3.937-.51,5.648-.089c-.33-.479-.854-1.268-.854-1.268a74.592,74.592,0,0,1,11.253-.289c5.037.374,20.11,1.766,20.11,1.766s-16.239-2.539-16.983-2.6-4.323-.941-4.323-.941a31.636,31.636,0,0,1-4.749-.006c1.95-.44,2.462-.512,2.462-.512s-7.95-1.479-9.461-1.755a13.087,13.087,0,0,1,2.042-.668,84.9,84.9,0,0,1-8.483-2.2,6.741,6.741,0,0,1,2.416-.814s-7.489-2.14-9.335-3.278c1.294-.281,2.421-.432,2.421-.432a41.618,41.618,0,0,1-5.69-2.97,5.894,5.894,0,0,0,2.839-.466,64.934,64.934,0,0,1-10.462-7.643c7.514.913,13.2.744,15.811,1.072-1.137-1.254-2-2.169-2-2.169s4.278.638,5.732,1.417c-.446-1.236-.759-1.946-.759-1.946a41.684,41.684,0,0,1,7.18,3.286c-.717-1.1-1.3-2.054-1.3-2.054s5.751,2.85,7.4,4.415a11.879,11.879,0,0,1-1.079-2.4s4.466,2.23,5.955,4.019a17.12,17.12,0,0,0-.742-2.273s15.946,12.391,21.038,17.421c-2.874-3.588-13.13-15.573-16.925-20.691,1.438.273,1.867.361,1.867.361s-2.454-3.142-4.911-6.029a4.167,4.167,0,0,0,1.892-.129,20.006,20.006,0,0,1-4.627-7.069,1.659,1.659,0,0,0,1.456.137s-.778-1.074-3.154-4.856a3.262,3.262,0,0,0,1.79.07,20.608,20.608,0,0,1-1.867-4.141c.677.537,1.83-.01,1.83-.01.042.016-2.633-2.432-2.86-4.49.5.256,2.434-.565,2.434-.565-.65-1.307-2.21-2.718-2.428-5.043a1.651,1.651,0,0,0,1.821.058l-.662-18.034c3.875,3.39,11.69,13.635,11.69,13.635s.878-.054,1.3-1.276c1.414,1.858,1.221,3.954,1.628,5.355,0,0,1.982-.71,2.174-1.233,1.226,1.668.915,5.282.935,5.242,0,0,1.219-.38,1.354-1.233a20.6,20.6,0,0,1,1.43,4.311,3.255,3.255,0,0,0,1.27-1.264c.814,4.391.968,5.709.968,5.709a1.656,1.656,0,0,0,.978-1.086,20,20,0,0,1,1.382,8.334,4.171,4.171,0,0,0,1.479-1.186c.146,3.787.468,7.762.468,7.762s.257-.356,1.13-1.53c.674,6.336,1.242,22.1,1.556,26.686Z" transform="translate(-44.383 -286.482)" fill="#fff"/>
        </g>
        <g id="Gruppe_8" data-name="Gruppe 8">
          <g id="Gruppe_3" data-name="Gruppe 3" transform="translate(0 21.731)">
            <path id="Pfad_2" data-name="Pfad 2" d="M101.408,171.486c-1.556-1.2-14.914-12.37-33.234-.542s-33.238,43.38-24.928,67.116,34.994,15.026,39.409,13.11,16.694-8.52,17.457-11.4-4.69-19.37-7.481-17.512-17.571,16.687-28.21,7.818c-8.822-7.355-.067-36.093,14.4-42.1,11.517-4.778,16.852,1.884,18.289.233S103.044,172.746,101.408,171.486Z" transform="translate(-40.886 -165.56)" fill="#dc0038"/>
          </g>
          <g id="Gruppe_4" data-name="Gruppe 4" transform="translate(64.829 18.172)">
            <path id="Pfad_3" data-name="Pfad 3" d="M181.26,200.354c-3.726-29.179-17.887-39.942-24.077-39.208-8.586,1.018-19.785,9.8-29.321,39.806-6.888,21.676-6.818,44.371-4.614,47.075,1.712,2.1,17.983.414,19.72-1.758s-.3-10.819,1.287-13.735c1.894-3.486,14.335-3.548,16.485-1.974,2.118,1.551-.506,10.891,2.05,13.69s17.289.35,19.236-2.219C183.038,240.7,184.624,226.7,181.26,200.354Zm-16.6,11.443c-2.34,1.6-20.444,2.327-21.127.118s6.9-24.585,12.146-25.522C159.9,185.637,167,210.2,164.661,211.8Z" transform="translate(-121.922 -161.111)" fill="#dc0038"/>
          </g>
          <g id="Gruppe_5" data-name="Gruppe 5" transform="translate(268.859)">
            <path id="Pfad_4" data-name="Pfad 4" d="M433.986,176.835c-4-28.792-19.078-39.12-25.084-38.4-8.33.992-19.53,8.73-27.373,38.677-5.893,22.5-5.146,43.811-2.968,46.482,1.69,2.073,17.157.63,18.815-1.512s-.43-10.674,1.072-13.549c1.8-3.435,13.884-3.48,15.993-1.924,2.079,1.534-.348,10.744,2.171,13.509s15.839.074,17.555-1.984C436.357,215.506,437.6,202.832,433.986,176.835ZM416.2,184.19c-2.214,1.5-17.486,4.6-18.162,2.528s5.1-24.872,10.1-25.758C412.154,160.246,418.414,182.691,416.2,184.19Z" transform="translate(-376.96 -138.396)" fill="#dc0038"/>
          </g>
          <g id="Gruppe_6" data-name="Gruppe 6" transform="translate(134.732 9.297)">
            <path id="Pfad_5" data-name="Pfad 5" d="M209.879,241.5c-2.446-1.038,3.592-80.716,4.719-82.7s14.486-5.179,16.83-3.642,16.446,38.362,16.446,38.362.543-36.58,2.215-38.61,16.174-6.546,17.819-4.275,2.4,80.414.3,82.482-16.636,5.545-18.853,3.056-18.1-32.845-18.1-32.845,1.378,33.722-.153,34.934S211.711,242.279,209.879,241.5Z" transform="translate(-209.301 -150.017)" fill="#dc0038"/>
          </g>
          <g id="Gruppe_7" data-name="Gruppe 7" transform="translate(202.025 4.812)">
            <path id="Pfad_6" data-name="Pfad 6" d="M294.01,232.365c-2.451-1.037,3.424-78.606,4.554-80.587s14.232-5.3,16.581-3.762,16.9,38.382,16.9,38.382.544-36.58,2.218-38.61,16.151-4.8,17.8-2.527-.325,77.658-2.436,79.727-14.636,4.528-16.857,2.04-17.383-30.818-17.383-30.818.507,33.8-1.026,35.011S295.845,233.142,294.01,232.365Z" transform="translate(-293.417 -144.411)" fill="#dc0038"/>
          </g>
        </g>
        <g id="Gruppe_13" data-name="Gruppe 13" transform="translate(59.627 101.543)">
          <g id="Gruppe_9" data-name="Gruppe 9" transform="translate(71.65 12.383)">
            <path id="Pfad_7" data-name="Pfad 7" d="M262.725,316.494c-5.379-27.073-20.863-36.181-24.812-35.671-6.582.848-16.9,7.15-26.325,38.34-7.082,23.436-7.581,45.658-5.6,48.454,1.538,2.17,16.791.741,18.542-1.484s.194-11.133,1.834-14.122c1.959-3.574,16.265-4.788,18.244-3.155,1.95,1.609-.834,11.7,1.477,14.59s16.172.358,17.975-1.779C266.36,358.941,267.449,340.27,262.725,316.494ZM245.32,329.12c-2.258,1.552-18.188,2.721-18.732.561s5.044-23.058,9.991-23.957C240.562,305,247.578,327.569,245.32,329.12Z" transform="translate(-204.983 -280.803)" fill="#dc0038"/>
          </g>
          <g id="Gruppe_10" data-name="Gruppe 10" transform="translate(0 17.272)">
            <path id="Pfad_8" data-name="Pfad 8" d="M122.582,293.742c2.062-2.661,17.364-4.986,18.986-3.082,1.342,1.574-.756,29.483.7,29.5,3.842.054,13.415-.281,16.172-1.966,1.446-.883,1.653-27.455,3.351-29.171s14.766-2.97,17.446-1.385c2.964,1.753,2.66,77.978.719,80.5-2.45,3.182-20.182,3.888-23.1,2.194-2.066-1.2,1.487-27.645.266-29.62-.471-.762-16.166.789-17.016,1.646s-.458,27.166-2.642,29.706c-2,2.33-20.106,5.342-21.831,2.732C114.166,372.582,120.808,296.03,122.582,293.742Z" transform="translate(-115.421 -286.914)" fill="#dc0038"/>
          </g>
          <g id="Gruppe_11" data-name="Gruppe 11" transform="translate(137.57 5.412)">
            <path id="Pfad_9" data-name="Pfad 9" d="M294.741,278.221c1.275-2.459,14.715-3.269,16.108-.4s-5.654,39.043-2.187,51.341c2.473,8.77,18.726,7.183,20.737-.294,2.322-8.637-2.229-51.854-.421-54.1s15.139-4.479,16.855-.463,6.57,77.338,5.4,79.4-16.636,2.789-17.491,2.083-1.182-3.673-1.182-3.673-15.246,8.373-28.372,6.027-19.858-20.85-15.466-51.368C292.086,283.41,293.466,280.68,294.741,278.221Z" transform="translate(-287.384 -272.089)" fill="#dc0038"/>
          </g>
          <g id="Gruppe_12" data-name="Gruppe 12" transform="translate(207.651)">
            <path id="Pfad_10" data-name="Pfad 10" d="M379.509,325.1c2.6-1.594,16.1,6.1,23.272,4.318s12.5-7.785,6.73-13.014-20.455-1.969-26.2-14.345,2.62-29.018,12.908-33.447,28.618-3.739,30.007-1.7c1.32,1.939-.273,16.014-2.94,17.085-1.457.585-10.15-2.406-17.618-.31-6.258,1.757-8.027,8.112-2.628,11.45s18.884,1.821,23.914,12.3,6.485,25.192-10.538,37.85-40.554,1.581-41.3-1.421S376.918,326.69,379.509,325.1Z" transform="translate(-374.984 -265.324)" fill="#dc0038"/>
          </g>
        </g>
      </g>
      <g id="Gruppe_90" data-name="Gruppe 90" transform="translate(78.221 29.506)">
        <g id="Gruppe_60" data-name="Gruppe 60">
          <g id="Gruppe_59" data-name="Gruppe 59">
            <g id="Gruppe_58" data-name="Gruppe 58">
              <g id="Gruppe_35" data-name="Gruppe 35" transform="translate(0 3.702)">
                <g id="Gruppe_15" data-name="Gruppe 15" transform="translate(0 38.151)">
                  <path id="Pfad_11" data-name="Pfad 11" d="M107.824,89.235a6.451,6.451,0,0,0-3.656.722,8.552,8.552,0,0,0-2.9,2.686,18.963,18.963,0,0,0-2.83,5.45,13.126,13.126,0,0,0,.24,8.939,8.806,8.806,0,0,0,4.2,4.652,9.2,9.2,0,0,0,4.735,1.03,10.4,10.4,0,0,0,4.2-1.242,16.163,16.163,0,0,0,3.1-2.235c.382-.348.749-.711,1.1-1.085a13.562,13.562,0,0,0,1.108-1.21,2.156,2.156,0,0,0,.311-1.473,1.365,1.365,0,0,0-1.551-1.14,2.009,2.009,0,0,0-1.4.728c-.127.142-.251.286-.379.428-.07.078-.142.154-.212.233.45-.5.183-.2.076-.085-.171.179-.344.356-.521.53a24.555,24.555,0,0,1-2.479,2.061c.491-.373.146-.1.008-.012s-.249.151-.375.223c-.254.146-.514.282-.781.406-.244.114-.511.19-.75.313.516-.263.089-.034-.086.018s-.337.094-.506.131a8.282,8.282,0,0,0-.821.138c.367-.126.311-.022.118-.014-.077,0-.154.009-.231.011-.157,0-.313,0-.469,0s-.319-.017-.478-.034c-.08-.009-.161-.022-.242-.03.472.04.255.042.133.016a9.146,9.146,0,0,1-1.035-.27c-.142-.049-.282-.1-.422-.157-.32-.121.357.17.046.02-.086-.042-.172-.081-.258-.123a9.463,9.463,0,0,1-1.047-.608c-.078-.052-.154-.107-.23-.161-.294-.206.358.311.131.109-.123-.11-.246-.22-.363-.338a7.927,7.927,0,0,1-.707-.845c-.207-.279.278.418.035.05-.061-.092-.12-.186-.178-.28q-.18-.3-.338-.609a11.4,11.4,0,0,1-.559-1.342c-.1-.266.125.422.048.148-.018-.066-.039-.13-.058-.2q-.056-.2-.106-.4-.1-.419-.17-.848-.064-.409-.1-.826c-.013-.156-.017-.313-.027-.469.039.6,0-.026.007-.176a11.9,11.9,0,0,1,.207-2.017c.04-.212.094-.423.137-.634-.114.562.027-.082.068-.221.122-.418.265-.833.426-1.242q.277-.7.626-1.385c.034-.067.069-.134.1-.2s.072-.135.109-.2c-.129.233-.147.263-.052.1.137-.24.28-.482.429-.719.291-.463.6-.916.934-1.357.186-.248.384-.486.574-.731.17-.218-.073.039-.075.073,0-.072.319-.287.379-.334s.243-.222.307-.224c-.229.142-.256.159-.082.058.073-.042.149-.082.224-.12q.169-.085.345-.157c.039-.016.078-.032.118-.046.179-.068.157-.059-.078.022a1.959,1.959,0,0,1,.849-.174l-.2.011c.081,0,.162-.007.242-.007a4.5,4.5,0,0,1,.477.028,1.949,1.949,0,0,0,1.977-1.56,1.517,1.517,0,0,0-1.39-1.79Z" transform="translate(-97.777 -89.199)" fill="#dc0038"/>
                </g>
                <g id="Gruppe_19" data-name="Gruppe 19" transform="translate(14.927 30.853)">
                  <g id="Gruppe_16" data-name="Gruppe 16" transform="translate(0.048 0.077)">
                    <path id="Pfad_12" data-name="Pfad 12" d="M125.056,101.252a76.745,76.745,0,0,1-2.692-7.624q-.581-1.98-1.052-4-.227-.974-.426-1.958c-.034-.164-.066-.328-.1-.492-.009-.046-.066-.342-.028-.144.035.182-.01-.052-.014-.074-.066-.351-.13-.706-.191-1.06q-.194-1.133-.353-2.276-.079-.572-.149-1.146c-.023-.192-.042-.384-.067-.575a3.166,3.166,0,0,0-.365-1.126,1.529,1.529,0,0,0-1.68-.552,1.906,1.906,0,0,0-1.37,1.358,6.161,6.161,0,0,0,.145,2.363q.154,1.037.339,2.066.389,2.16.9,4.282a73.117,73.117,0,0,0,2.363,7.846q.8,2.2,1.73,4.349a1.628,1.628,0,0,0,3.01-1.239Z" transform="translate(-116.495 -80.173)" fill="#dc0038"/>
                  </g>
                  <g id="Gruppe_17" data-name="Gruppe 17">
                    <path id="Pfad_13" data-name="Pfad 13" d="M117,83.106q3.455,2.533,6.822,5.151,1.668,1.3,3.314,2.615.823.659,1.641,1.323a13.189,13.189,0,0,0,1.938,1.486,1.616,1.616,0,0,0,2.059-2.322,11.608,11.608,0,0,0-1.748-1.61q-.805-.679-1.617-1.354-1.651-1.372-3.325-2.724-3.319-2.68-6.727-5.277a1.868,1.868,0,0,0-2.478.356,1.623,1.623,0,0,0,.12,2.354Z" transform="translate(-116.435 -80.076)" fill="#dc0038"/>
                  </g>
                  <g id="Gruppe_18" data-name="Gruppe 18" transform="translate(2.671 5.654)">
                    <path id="Pfad_14" data-name="Pfad 14" d="M122.935,94.826c.142-.318.3-.63.468-.934.041-.072.306-.579.109-.192a2.817,2.817,0,0,1,.221-.326,10.843,10.843,0,0,1,1.33-1.55c.332-.319-.172.133.1-.1.136-.113.269-.228.408-.337q.39-.307.807-.578c.811-.525,1.786-.831,2.035-1.874a1.453,1.453,0,0,0-.782-1.617c-.96-.544-2.234.279-3.083.833a13.625,13.625,0,0,0-1.975,1.611,12.164,12.164,0,0,0-2.665,3.856,1.569,1.569,0,0,0,.829,2.12,1.778,1.778,0,0,0,2.194-.917Z" transform="translate(-119.773 -87.144)" fill="#dc0038"/>
                  </g>
                </g>
                <g id="Gruppe_23" data-name="Gruppe 23" transform="translate(25.84 18.913)">
                  <g id="Gruppe_20" data-name="Gruppe 20" transform="translate(0 7.558)">
                    <path id="Pfad_15" data-name="Pfad 15" d="M140.125,89.874c-1.326-2.331-2.57-4.709-3.713-7.136q-.413-.877-.808-1.762-.212-.476-.42-.955c-.058-.138-.118-.274-.176-.411q-.115-.269-.006-.013c-.039-.091-.077-.183-.116-.274q-.373-.9-.729-1.8a17.235,17.235,0,0,0-.879-2.2,1.65,1.65,0,0,0-2.119-.554,1.775,1.775,0,0,0-1.043,1.994,11.572,11.572,0,0,0,.762,1.946q.376.9.77,1.782.89,2.005,1.86,3.97c1.2,2.426,2.51,4.8,3.9,7.119a1.621,1.621,0,0,0,2.206.5,1.642,1.642,0,0,0,.512-2.2Z" transform="translate(-130.077 -74.6)" fill="#dc0038"/>
                  </g>
                  <g id="Gruppe_21" data-name="Gruppe 21" transform="translate(0.178 7.02)">
                    <path id="Pfad_16" data-name="Pfad 16" d="M130.792,76.81c2.222,1.671,4.5,3.27,6.8,4.809q1.657,1.106,3.34,2.163.84.529,1.686,1.046a11.286,11.286,0,0,0,2.025,1.121,1.614,1.614,0,0,0,1.589-2.656,11.927,11.927,0,0,0-1.877-1.25q-.841-.527-1.678-1.066-1.642-1.06-3.262-2.162-.794-.542-1.582-1.1l-.466-.329c-.288-.2.191.138-.122-.086-.27-.2-.54-.39-.809-.586q-1.615-1.177-3.194-2.4a1.824,1.824,0,0,0-2.441.169,1.607,1.607,0,0,0-.014,2.326Z" transform="translate(-130.299 -73.926)" fill="#dc0038"/>
                  </g>
                  <g id="Gruppe_22" data-name="Gruppe 22" transform="translate(4.976)">
                    <path id="Pfad_17" data-name="Pfad 17" d="M147.7,81.446a83.22,83.22,0,0,1-8.08-15.5,1.722,1.722,0,0,0-2.37-.552,1.768,1.768,0,0,0-.794,2.3,83.3,83.3,0,0,0,8.426,15.312,1.644,1.644,0,0,0,2.181.606,1.626,1.626,0,0,0,.638-2.17Z" transform="translate(-136.297 -65.152)" fill="#dc0038"/>
                  </g>
                </g>
                <g id="Gruppe_26" data-name="Gruppe 26" transform="translate(39.877 14.774)">
                  <g id="Gruppe_24" data-name="Gruppe 24" transform="translate(0 3.104)">
                    <path id="Pfad_18" data-name="Pfad 18" d="M155.86,82.492q-.437-1.076-.844-2.164-.2-.545-.4-1.091-.1-.274-.194-.548c-.032-.091-.064-.182-.1-.274.061.178.06.175,0-.006-.481-1.417-.935-2.85-1.343-4.3a71.68,71.68,0,0,1-1.927-8.965,1.608,1.608,0,0,0-1.97-1.242,1.815,1.815,0,0,0-1.442,1.974,75.393,75.393,0,0,0,5.463,18.041,1.576,1.576,0,0,0,2.1.678,1.61,1.61,0,0,0,.653-2.107Z" transform="translate(-147.623 -63.857)" fill="#dc0038"/>
                  </g>
                  <g id="Gruppe_25" data-name="Gruppe 25" transform="translate(0.341)">
                    <path id="Pfad_19" data-name="Pfad 19" d="M148.45,67.016a76.551,76.551,0,0,0,13.312,11.17,1.616,1.616,0,0,0,1.939-.056,1.651,1.651,0,0,0,.442-1.9c-1.192-2.423-2.276-4.9-3.225-7.428q-.7-1.879-1.307-3.8-.3-.958-.575-1.924c-.04-.143-.081-.286-.12-.43-.026-.1-.053-.191-.078-.287.049.182.047.178,0-.01-.09-.335-.175-.672-.26-1.01a1.646,1.646,0,0,0-.656-1.078,1.776,1.776,0,0,0-1.266-.264c-.842.177-1.765,1.04-1.528,1.918a78.37,78.37,0,0,0,6.1,15.609q1.184-.991,2.392-1.963a79.1,79.1,0,0,1-6.685-5.116c-.122-.1-.243-.209-.364-.314l-.207-.181c.145.127.146.13.008.006-.273-.242-.546-.488-.817-.736q-.761-.7-1.5-1.415-1.529-1.484-2.958-3.066a1.793,1.793,0,0,0-2.439-.058,1.627,1.627,0,0,0-.2,2.326Z" transform="translate(-148.049 -59.978)" fill="#dc0038"/>
                  </g>
                </g>
                <g id="Gruppe_29" data-name="Gruppe 29" transform="translate(57.125 9.724)">
                  <g id="Gruppe_27" data-name="Gruppe 27">
                    <path id="Pfad_20" data-name="Pfad 20" d="M173.464,75.132q-.586-7.729-.755-15.546-.048-2.227-.062-4.461-1.584.569-3.158,1.166,5.965,7.456,11.409,15.2a1.592,1.592,0,0,0,2.186.454,1.655,1.655,0,0,0,.425-2.229q-5.311-7.835-11.151-15.4a1.764,1.764,0,0,0-2-.532,1.8,1.8,0,0,0-1.174,1.7q.184,7.838.783,15.593.17,2.209.374,4.41a1.636,1.636,0,0,0,1.773,1.4,1.6,1.6,0,0,0,1.35-1.765Z" transform="translate(-169.182 -53.665)" fill="#dc0038"/>
                  </g>
                  <g id="Gruppe_28" data-name="Gruppe 28" transform="translate(1.313 8.94)">
                    <path id="Pfad_21" data-name="Pfad 21" d="M173.746,70.412a12.124,12.124,0,0,1,.924-.968l-.31.291a11.955,11.955,0,0,1,2.686-1.89l-.393.2.079-.041a1.913,1.913,0,0,0,.824-.662,1.588,1.588,0,0,0,.28-.99c-.012-.142-.055.3-.022.1a1.177,1.177,0,0,0-.63-1.246c-.208-.128-.082-.019.379.335a2.439,2.439,0,0,0-.3-.318,1.631,1.631,0,0,0-1.631-.274,13.312,13.312,0,0,0-4.459,3.45,1.615,1.615,0,0,0,.267,2.281,1.7,1.7,0,0,0,2.3-.275Z" transform="translate(-170.824 -64.84)" fill="#dc0038"/>
                  </g>
                </g>
                <g id="Gruppe_32" data-name="Gruppe 32" transform="translate(65.138 5.7)">
                  <g id="Gruppe_30" data-name="Gruppe 30" transform="translate(1.585 3.555)">
                    <path id="Pfad_22" data-name="Pfad 22" d="M181.419,55.611q.354.65.694,1.31.168.33.333.662c.044.088.087.177.131.266a1.39,1.39,0,0,1,.069.142c.422.893.827,1.792,1.206,2.7q1.152,2.766,2.031,5.634.206.672.4,1.347a3.534,3.534,0,0,0,.348.957,1.727,1.727,0,0,0,1.276.754,1.337,1.337,0,0,0,1.155-.459,1.709,1.709,0,0,0,.4-1.606c-.1-.506-.256-1.006-.4-1.5q-.805-2.885-1.877-5.686a61.346,61.346,0,0,0-2.856-6.33,1.751,1.751,0,0,0-2.37-.449,1.64,1.64,0,0,0-.546,2.259Z" transform="translate(-181.181 -53.08)" fill="#dc0038"/>
                  </g>
                  <g id="Gruppe_31" data-name="Gruppe 31">
                    <path id="Pfad_23" data-name="Pfad 23" d="M181.83,55.394a19,19,0,0,1,1.65-1c.607-.323,1.225-.629,1.845-.93.454-.22.909-.441,1.368-.65l.275-.123c.24-.11-.412.166-.032.014.227-.091.454-.182.685-.266a12.428,12.428,0,0,1,1.288-.389q.294-.071.591-.124c.146-.026.451.006.017-.008a3.508,3.508,0,0,0,.353-.034,6.4,6.4,0,0,1,.7-.018c.077,0,.154.006.23.01l.114.009c.182.017.152.014-.1-.014.072-.043.478.092.557.113.11.029.218.066.326.1.364.107-.313-.161.026.009.1.051.2.1.3.154.262.125-.159-.14-.2-.226a1.276,1.276,0,0,1-.115-.653l-.047.124c.1-.2.1-.226.028-.079-.092.142-.182.286-.275.429-.194.3.266-.278.02-.018-.07.074-.135.149-.207.22a5.566,5.566,0,0,1-.414.374,1.412,1.412,0,0,0-.2.158c.232-.286.175-.128.016-.021-.324.218-.662.413-1.006.6-1.713.922-3.527,1.64-4.9,3.023a1.579,1.579,0,0,0-.069,2.13,1.722,1.722,0,0,0,2.158.326c.226-.115.453-.228.683-.335.1-.049.21-.1.317-.143-.348.143-.049.023.038-.013a13.855,13.855,0,0,1,1.442-.5,9.179,9.179,0,0,1,1.413-.3c-.366.043-.11.015-.035.01.136-.008.272-.024.408-.031.273-.014.546-.015.818,0,.09,0,.182.01.272.018l.136.013c.193.021.181.02-.041-.007a3.216,3.216,0,0,0,.561.116q.278.072.549.169c.024.008.374.15.126.044s.182.09.223.11q.254.13.494.282c.1.061.188.127.282.19.13.087.154.022-.061-.05.141.048.308.266.416.374.078.078.155.158.228.242.037.042.072.083.107.126q.115.142-.084-.118a3.371,3.371,0,0,1,.536.948l-.082-.2c.024.069.046.138.067.208q.038.132.067.266c.02.09.034.182.051.273.066.34,0-.33-.006-.01,0,.192,0,.381-.016.573-.03.323-.034-.043.018-.054a2.145,2.145,0,0,0-.054.254,4.658,4.658,0,0,1-.166.546c-.024.063-.059.13-.077.194.115-.422,0-.023-.062.094q-.126.232-.273.451c-.039.059-.081.116-.121.174-.211.306.235-.269-.009.012a8.888,8.888,0,0,1-.834.83c-.228.2.073-.046.076-.054-.021.056-.212.153-.262.186q-.222.15-.455.28c-.155.086-.314.162-.474.239-.334.161.372-.117-.05.015-.129.04-.254.089-.382.129q-.384.118-.778.2c-.11.023-.219.043-.329.062l-.2.031c.2-.028.209-.026.026-.009a12.153,12.153,0,0,1-1.623.05c-.273-.01-.546-.026-.819-.05l-.274-.026c.376.035-.2-.027-.268-.037-.25-.035-.5-.08-.747-.119a2.547,2.547,0,0,0-1.374.166,1.365,1.365,0,0,0-.5,2.29,2.587,2.587,0,0,0,1.08.672,7.193,7.193,0,0,0,.8.126c.672.094,1.348.17,2.023.2a11.872,11.872,0,0,0,3.438-.329,8.131,8.131,0,0,0,4.9-3.529,6.141,6.141,0,0,0,.373-6.054,7.175,7.175,0,0,0-5.01-3.581,13.094,13.094,0,0,0-8.258,1.668q1.051,1.225,2.083,2.461c.066-.066.461-.35.464-.423l-.174.136c.056-.043.112-.086.169-.127.086-.063.172-.124.26-.183a12.74,12.74,0,0,1,1.207-.712c.766-.4,1.559-.759,2.322-1.175a9.3,9.3,0,0,0,2.255-1.625c.944-.978,1.894-2.434,1.226-3.76a4.118,4.118,0,0,0-3.058-1.756,9.459,9.459,0,0,0-3.516.142,24.84,24.84,0,0,0-5.836,2.406A23.3,23.3,0,0,0,180,52.71a1.622,1.622,0,0,0-.528,2.265,1.77,1.77,0,0,0,2.358.418Z" transform="translate(-179.2 -48.636)" fill="#dc0038"/>
                  </g>
                </g>
                <g id="Gruppe_33" data-name="Gruppe 33" transform="translate(84.042 2.111)">
                  <path id="Pfad_24" data-name="Pfad 24" d="M202.851,46.13q.634,4.031,1.348,8.048.358,2.009.733,4.014.181.965.366,1.93c.066.346.126.694.2,1.039a2.853,2.853,0,0,0,.218.7,2.81,2.81,0,0,0,.5.621,1.337,1.337,0,0,0,2.252-.465,2.182,2.182,0,0,0,.232-.772,4.225,4.225,0,0,0-.066-.73c-.052-.349-.121-.7-.181-1.042q-.167-.968-.33-1.937-.34-2.012-.659-4.027-.641-4.03-1.2-8.07a1.691,1.691,0,0,0-2.03-1.245,1.712,1.712,0,0,0-1.382,1.937Z" transform="translate(-202.829 -44.149)" fill="#dc0038"/>
                </g>
                <g id="Gruppe_34" data-name="Gruppe 34" transform="translate(89.884)">
                  <path id="Pfad_25" data-name="Pfad 25" d="M217.9,41.754a6.285,6.285,0,0,0-7.459,3.475,4.563,4.563,0,0,0,.55,4.35A5.231,5.231,0,0,0,214.2,51.32c.988.222,2,.317,2.987.522.249.052-.175-.045-.181-.047.062.02.127.034.19.052.111.032.222.066.331.1s.189.07.282.109c.057.024.112.052.168.077.3.13-.234-.162-.108-.065.282.218.584.418.866.636.182.14-.187-.2-.036-.039.066.072.134.14.2.213a4.833,4.833,0,0,1,.346.442.975.975,0,0,1,.121.182l-.1-.172c.026.046.052.094.077.141.073.141.141.285.2.432s.106.3.157.446c.075.222-.086-.412-.019-.061.017.086.038.171.054.258a7.292,7.292,0,0,1,.112.951c.006.124-.018.642.014.166-.012.183-.006.368-.017.551a5.665,5.665,0,0,1-.062.569,2.157,2.157,0,0,0-.09.444c-.021-.214.073-.234.016-.077-.032.088-.058.177-.091.265-.071.191-.159.37-.243.555-.058.129-.14.121.045-.07a1.376,1.376,0,0,0-.113.182,4.817,4.817,0,0,1-.313.426,1.444,1.444,0,0,0-.136.157c.127-.229.176-.171.067-.074a4.761,4.761,0,0,1-.386.321c-.04.029-.27.234-.072.054s-.051.019-.125.053-.15.061-.223.093c-.275.122.358-.057.038-.01a1.769,1.769,0,0,0-.482.063c.135-.089.337.014.135,0-.1-.009-.19-.013-.285-.026-.063-.008-.126-.022-.188-.03-.317-.04.309.11.027.01-.169-.06-.335-.117-.5-.192a2.068,2.068,0,0,0-.223-.109c.032-.027.334.2,0,0-.147-.091-.29-.19-.43-.294s-.283-.218-.42-.334c-.056-.047-.11-.1-.166-.144l-.163-.149.137.127a2.47,2.47,0,0,1-.436-.445c-.145-.154-.286-.311-.424-.47-.254-.292-.5-.59-.742-.891-.121-.15-.236-.3-.368-.442a1.963,1.963,0,0,0-1.3-.582,1.374,1.374,0,0,0-1.47,1.221,2.1,2.1,0,0,0,.55,1.7c.238.3.479.6.732.9a16.844,16.844,0,0,0,1.73,1.724,6.117,6.117,0,0,0,4.176,1.622,4.926,4.926,0,0,0,3.817-2.394,8.227,8.227,0,0,0,1.174-4.8,6.782,6.782,0,0,0-1.61-4.333,7.125,7.125,0,0,0-2.139-1.646,7.568,7.568,0,0,0-1.71-.537c-.5-.112-1.015-.186-1.527-.262-.25-.037-.5-.074-.747-.116-.135-.023-.27-.047-.4-.074l-.159-.033c-.309-.062.409.114.112.025-.221-.067-.443-.124-.659-.208-.076-.03-.437-.207-.146-.052s-.113-.074-.178-.12c-.038-.026-.074-.06-.113-.083-.19-.114.142.127.153.143a3.233,3.233,0,0,0-.237-.258c-.238-.276.126.269.031.051-.036-.081-.2-.523-.118-.218s-.041-.21-.053-.291c-.009-.062-.013-.126-.022-.188-.051-.326-.026.383,0,.058a4.517,4.517,0,0,1,.046-.451c.009-.052.088-.338,0-.059s.018-.039.038-.1a4.661,4.661,0,0,1,.2-.448c.072-.146.121-.053-.077.13a1.612,1.612,0,0,0,.152-.223c.089-.122.19-.234.287-.35.207-.246-.249.209-.077.074.071-.057.135-.124.206-.183a4.654,4.654,0,0,1,.408-.3,1.626,1.626,0,0,0,.157-.1c-.3.257-.217.123-.055.041a4.465,4.465,0,0,1,.423-.19c.072-.029.146-.052.218-.079.354-.136-.258.048-.087.02s.326-.074.494-.1c.06-.008.121-.015.181-.02.187-.017.332.052-.1-.006.146.02.3.009.448.027.073.009.148.03.221.034q.194.037-.21-.054c.058.015.114.031.171.049a1.83,1.83,0,0,0,2.246-.888,1.555,1.555,0,0,0-.9-2.092Z" transform="translate(-210.131 -41.51)" fill="#dc0038"/>
                </g>
              </g>
              <g id="Gruppe_47" data-name="Gruppe 47" transform="translate(108.96)">
                <g id="Gruppe_36" data-name="Gruppe 36">
                  <path id="Pfad_26" data-name="Pfad 26" d="M245.045,38.171a4.393,4.393,0,0,0-4.606-1.02,5.421,5.421,0,0,0-3.146,3.677,4.757,4.757,0,0,0,.859,4.638,6.978,6.978,0,0,0,1.716,1.318c.225.131.453.255.678.385.1.06.208.12.31.182l.172.108c.3.19-.286-.231-.008,0,.2.17.407.335.594.523.051.05.1.1.149.154s.194.228.045.044-.022-.026,0,.008c.067.086.135.173.2.262a7.279,7.279,0,0,1,.453.7c.074.131.139.267.211.4.107.2-.118-.278-.031-.072.038.088.076.174.112.263a8.38,8.38,0,0,1,.3.87c.037.13.07.261.1.392.017.075.034.15.049.226.046.23.007.15,0-.03.008.3.075.612.086.919a8.991,8.991,0,0,1-.022.917c-.022.306-.009-.06.01-.086a1.063,1.063,0,0,0-.036.23c-.026.151-.057.3-.094.451s-.076.294-.121.438l-.053.16c-.078.23-.079.1.015-.024a8.348,8.348,0,0,0-.382.782c-.07.122-.147.241-.224.36s-.159.119.059-.078a1.387,1.387,0,0,0-.127.162,7.505,7.505,0,0,1-.552.586c-.143.141-.051-.054.09-.072a.889.889,0,0,0-.154.118c-.115.085-.235.164-.358.237-.041.024-.083.046-.123.07-.218.136.087-.044.123-.05a2.884,2.884,0,0,0-.343.136c-.117.04-.234.068-.353.1-.164.045-.1-.065.15-.025a1.168,1.168,0,0,0-.228.024,2.028,2.028,0,0,0-.413,0c.026-.01.411.062.15.014-.075-.014-.152-.025-.227-.041-.138-.029-.27-.07-.406-.109-.189-.054.022-.074.118.046-.037-.046-.167-.074-.219-.1q-.2-.1-.389-.21c-.058-.034-.113-.071-.17-.106-.242-.153.2.158.045.031a8.268,8.268,0,0,1-.7-.63c-.049-.051-.1-.106-.145-.158-.134-.142.2.261.022.022-.1-.134-.2-.263-.292-.4s-.183-.281-.266-.426c-.038-.066-.072-.132-.109-.2-.147-.265.084.2.007.018a9.071,9.071,0,0,1-.358-.973,1.772,1.772,0,0,0-1.09-1.427,1.373,1.373,0,0,0-1.64.326,4.173,4.173,0,0,0-.358.521,1.83,1.83,0,0,0-.041,1.366,6.813,6.813,0,0,0,.313.934,8.707,8.707,0,0,0,1.054,1.882,7.239,7.239,0,0,0,3.162,2.5,4.811,4.811,0,0,0,3.662-.034,6.867,6.867,0,0,0,3.056-2.75,9.033,9.033,0,0,0,.511-8.037,8.523,8.523,0,0,0-2.438-3.437,12.484,12.484,0,0,0-1.67-1.076c-.122-.069-.245-.138-.366-.21-.063-.038-.285-.227-.355-.222.034,0,.318.242.1.059-.053-.043-.109-.084-.162-.127s-.1-.089-.154-.135-.246-.266-.077-.063c.152.182.033.038.006,0-.061-.086-.118-.17-.176-.258-.137-.208.035.089.038.09-.039-.009-.089-.238-.1-.271-.016-.053-.07-.326-.036-.107.038.234,0-.131-.006-.178,0-.088,0-.175,0-.263-.009-.4-.046.194,0-.029.023-.123.161-1.136.3-1.152,0,0-.17.36-.02.052.043-.09.085-.18.132-.268.083-.156.178-.3.276-.452.114-.176-.038-.055-.049.058.006-.06.15-.169.19-.21s.106-.1.162-.154c.226-.2.071.01-.037.021a1.3,1.3,0,0,0,.185-.118c.03-.018.352-.174.09-.058-.289.128.308-.061.316-.07-.1.111-.364.032-.131.032.1,0,.231.014.327,0-.066.007-.393-.08-.132,0,.06.019.359.122.112.016-.278-.119.266.167.3.164-.055,0-.287-.244-.071-.037.086.083.176.16.259.246a1.824,1.824,0,0,0,2.422-.044,1.542,1.542,0,0,0-.026-2.248Z" transform="translate(-233.977 -36.883)" fill="#dc0038"/>
                </g>
                <g id="Gruppe_37" data-name="Gruppe 37" transform="translate(13.456 1.47)">
                  <path id="Pfad_27" data-name="Pfad 27" d="M259.283,39.687a4.586,4.586,0,0,0-5.528.343,7.7,7.7,0,0,0-2.378,4.678,33.454,33.454,0,0,0-.57,5.737,26.756,26.756,0,0,0,.369,5.66c.351,1.761,1.37,3.55,3.158,4.032a4.1,4.1,0,0,0,2.722-.23,5.381,5.381,0,0,0,2-1.67,13.192,13.192,0,0,0,2.126-4.576,22.135,22.135,0,0,0,.867-5.378,15.865,15.865,0,0,0-.69-5.806,7.469,7.469,0,0,0-1.421-2.551,4.274,4.274,0,0,0-1.106-.892,2.462,2.462,0,0,0-2.27-.07,1.306,1.306,0,0,0-.365,2.115c.146.158-.215-.3-.012-.012a2.123,2.123,0,0,0,.774.684c.056.03.108.067.164.1.231.126-.086-.054-.107-.094.059.117.268.242.361.345.018.02.127.157.134.156-.022,0-.233-.34-.069-.085.078.122.159.24.232.365s.126.227.183.343c.034.068.066.136.1.2.094.207.035.147,0-.024.063.3.211.589.292.882.092.333.166.67.226,1.01.063.363.114.729.156,1.1.01.092.022.184.029.275,0-.06-.026-.333,0-.018.014.207.029.414.038.621a19.9,19.9,0,0,1-.026,2.27q-.037.546-.1,1.09c-.022.18-.046.36-.074.539-.013.09-.027.179-.042.268-.007.045-.074.419-.03.187.04-.216-.014.067-.025.118l-.055.264q-.056.262-.121.523-.133.55-.3,1.09-.155.5-.337,1c-.059.158-.12.317-.184.474-.031.078-.063.155-.1.232-.026.059-.172.455-.03.077a5.045,5.045,0,0,1-.469.858q-.109.176-.23.345c-.046.063-.094.124-.139.187-.114.159.21-.224,0-.012-.1.107-.206.215-.318.314a.973.973,0,0,1-.167.141c.056,0,.258-.166.07-.055-.037.022-.354.176-.355.192,0-.078.333-.1.1-.044-.094.023-.194.047-.287.073-.194.054-.031-.09.131-.006a.971.971,0,0,0-.2.006c-.066,0-.13-.008-.2-.01-.222-.006.062-.08.13.024a1.734,1.734,0,0,0-.377-.12c.056,0,.314.188.1.037-.07-.05-.144-.1-.216-.144-.172-.113.2.216.07.05-.046-.058-.1-.108-.152-.164s-.134-.246-.048-.054,0-.011-.03-.066c-.076-.132-.134-.269-.2-.4-.1-.2.087.282.026.066-.026-.094-.062-.186-.089-.28a7.6,7.6,0,0,1-.2-.945c-.019-.119-.128-.585-.029-.179a3.375,3.375,0,0,1-.045-.548c-.054-.806-.078-1.614-.078-2.422a35.551,35.551,0,0,1,.323-4.879c.033-.242.062-.487.107-.727-.01.055-.057.324,0,.026.019-.106.038-.214.058-.321.076-.4.165-.806.274-1.2a9.517,9.517,0,0,1,.364-1.083,1.124,1.124,0,0,1,.1-.228c-.226.276-.023.046.034-.06.086-.158.179-.314.281-.464.045-.066.091-.131.139-.194.169-.226.11-.042-.018,0,.117-.038.275-.272.375-.354.048-.039.234-.206.05-.048s.05-.026.108-.057.134-.064.2-.1c.308-.172-.349.078-.006-.006.07-.018.139-.038.21-.054s.384-.039.089-.027c-.347.014.282.036.3.024-.127.074-.361-.077-.142-.015.051.014.1.029.156.046.122.043.071.018-.154-.076a3.347,3.347,0,0,1,.482.3,1.814,1.814,0,0,0,2.391-.474,1.592,1.592,0,0,0-.516-2.238Z" transform="translate(-250.797 -38.721)" fill="#dc0038"/>
                </g>
                <g id="Gruppe_38" data-name="Gruppe 38" transform="translate(24.986 3.829)">
                  <path id="Pfad_28" data-name="Pfad 28" d="M275.021,41.688c-4.856-.35-7.844,4.139-8.9,7.959A22.791,22.791,0,0,0,265.211,56c.041,2.174.753,4.646,3.022,5.332a4.683,4.683,0,0,0,3.552-.391,10.11,10.11,0,0,0,1.59-1.055c.238-.19.472-.385.7-.59a2.7,2.7,0,0,0,.757-1.19c.326-.9-.377-2.115-1.445-1.864a4.964,4.964,0,0,0-.835.219,3.156,3.156,0,0,0-.748.563,13.775,13.775,0,0,1-1.12.872c-.085.06-.174.182.03-.018a1.392,1.392,0,0,1-.324.176c-.161.08-.327.142-.492.211-.2.086.382-.074.042-.02-.086.014-.17.036-.255.049-.046.006-.232,0-.258.027.238-.006.294-.01.17-.012-.051,0-.1,0-.153-.008a1.536,1.536,0,0,0-.3-.042c.036-.027.38.13.122.019-.076-.033-.158-.066-.237-.093-.2-.069.312.232.049.023-.067-.053-.14-.107-.21-.158-.172-.123.241.3.027.014-.044-.058-.092-.122-.14-.178q-.144-.212.051.086c-.034-.061-.066-.122-.1-.186s-.058-.128-.085-.194c-.016-.038-.1-.362-.044-.1s-.017-.088-.024-.117c-.017-.073-.032-.146-.046-.219-.035-.187-.06-.376-.077-.566-.01-.108-.1-.45-.01-.035a1.78,1.78,0,0,1,0-.358,18.517,18.517,0,0,1,.237-2.557q.095-.649.218-1.293a6.4,6.4,0,0,1,.14-.674c-.118.384.013-.051.028-.112q.05-.2.1-.4a15.6,15.6,0,0,1,.91-2.533c.094-.2.194-.4.3-.593.2-.391-.182.282.053-.091.045-.072.087-.146.133-.218a9.061,9.061,0,0,1,.794-1.081c.053-.062.106-.122.16-.182.032-.035.37-.365.183-.2s.093-.082.108-.1q.132-.119.267-.23.268-.221.557-.416c.063-.042.13-.085.192-.125.149-.1.129-.08-.08.042.065-.036.131-.071.2-.106.164-.083.333-.159.5-.227.1-.04.207-.072.31-.11.35-.13-.375.072-.01,0a6.051,6.051,0,0,1,.634-.1,1.107,1.107,0,0,0,.214-.014c-.283,0-.329,0-.141,0,.071,0,.143.007.214.013a1.62,1.62,0,1,0,.38-3.208Z" transform="translate(-265.209 -41.669)" fill="#dc0038"/>
                </g>
                <g id="Gruppe_39" data-name="Gruppe 39" transform="translate(34.913 3.597)">
                  <path id="Pfad_29" data-name="Pfad 29" d="M281.375,42.739q-1.175,4.417-2.154,8.878-.484,2.2-.924,4.4-.22,1.1-.43,2.207c-.074.392-.165.785-.222,1.179a6.037,6.037,0,0,0,.058,1.43A1.346,1.346,0,0,0,278.828,62a1.4,1.4,0,0,0,1.406-.8,5.514,5.514,0,0,0,.555-1.342c.088-.39.162-.783.244-1.174q.232-1.1.473-2.2.482-2.2,1.008-4.382,1.067-4.44,2.325-8.835a1.687,1.687,0,0,0-1.491-1.865,1.73,1.73,0,0,0-1.972,1.346Z" transform="translate(-277.618 -41.38)" fill="#dc0038"/>
                </g>
                <g id="Gruppe_40" data-name="Gruppe 40" transform="translate(47.188 9.173)">
                  <path id="Pfad_30" data-name="Pfad 30" d="M293.031,48.511a.082.082,0,1,0,.031-.161.082.082,0,1,0-.031.161Z" transform="translate(-292.962 -48.349)" fill="#dc0038"/>
                </g>
                <g id="Gruppe_41" data-name="Gruppe 41" transform="translate(38.858 3.69)">
                  <path id="Pfad_31" data-name="Pfad 31" d="M291.129,42.355a110.649,110.649,0,0,0-6.97,16.35q-.409,1.214-.794,2.438-.187.594-.369,1.19a9.262,9.262,0,0,0-.435,1.545,1.59,1.59,0,0,0,1.05,1.761,1.544,1.544,0,0,0,1.845-.84,3.313,3.313,0,0,0,.2-.543c.019-.06.1-.306,0-.006.053-.162.1-.326.158-.489q.168-.523.342-1.045.358-1.078.735-2.149.74-2.1,1.557-4.18,1.614-4.1,3.549-8.074,1.1-2.251,2.312-4.454a1.616,1.616,0,0,0-.817-2.194,1.831,1.831,0,0,0-2.362.69Z" transform="translate(-282.549 -41.495)" fill="#dc0038"/>
                </g>
                <g id="Gruppe_42" data-name="Gruppe 42" transform="translate(46.703 3.424)">
                  <path id="Pfad_32" data-name="Pfad 32" d="M292.674,43.672a8.188,8.188,0,0,1,.466.685c.173.282-.042-.047-.034-.061a.952.952,0,0,0,.082.16c.082.162.157.326.227.493a13.451,13.451,0,0,1,.556,1.7c.05.18-.019-.094-.023-.106.025.079.038.166.055.247q.047.218.088.437c.06.314.113.63.161.946.1.669.183,1.34.261,2.01q.493,4.274.6,8.559.032,1.214.037,2.429a6.16,6.16,0,0,0,.287,2.958,1.517,1.517,0,0,0,2.613-.082,3.019,3.019,0,0,0,.3-1.611q.014-.553.023-1.106.017-1.1.011-2.21-.012-2.239-.123-4.482a51.963,51.963,0,0,0-.876-8.382,10.807,10.807,0,0,0-1.817-4.355,1.926,1.926,0,0,0-2.471-.48,1.542,1.542,0,0,0-.421,2.245Z" transform="translate(-292.356 -41.163)" fill="#dc0038"/>
                </g>
                <g id="Gruppe_43" data-name="Gruppe 43" transform="translate(43.369 14.836)">
                  <path id="Pfad_33" data-name="Pfad 33" d="M289.534,58.64a19.664,19.664,0,0,0,3.412.478q.77.048,1.544.026a2.41,2.41,0,0,0,1.293-.338,2.829,2.829,0,0,0,.832-.807,1.126,1.126,0,0,0-.242-1.371,2.835,2.835,0,0,0-.8-.519,3.019,3.019,0,0,0-1.4-.192c-.542.013-1.083,0-1.624-.037l.448.032a18.07,18.07,0,0,1-2.867-.446,1.644,1.644,0,0,0-1.926,1.291,1.677,1.677,0,0,0,1.33,1.884Z" transform="translate(-288.188 -55.427)" fill="#dc0038"/>
                </g>
                <g id="Gruppe_46" data-name="Gruppe 46" transform="translate(53.293 6.861)">
                  <g id="Gruppe_44" data-name="Gruppe 44">
                    <path id="Pfad_34" data-name="Pfad 34" d="M304.236,46.623c-.332,2.959-.817,5.9-1.437,8.8q-.466,2.189-1.03,4.354-.282,1.084-.586,2.16a9.547,9.547,0,0,0-.591,2.434,1.58,1.58,0,0,0,1.161,1.491,1.641,1.641,0,0,0,1.742-.738,5.12,5.12,0,0,0,.518-1.374q.155-.5.3-1,.32-1.07.62-2.149.6-2.156,1.1-4.337c.666-2.9,1.2-5.83,1.577-8.784a1.713,1.713,0,0,0-1.293-1.986c-.842-.179-1.987.233-2.087,1.123Z" transform="translate(-300.593 -45.459)" fill="#dc0038"/>
                  </g>
                  <g id="Gruppe_45" data-name="Gruppe 45" transform="translate(0.518 16.918)">
                    <path id="Pfad_35" data-name="Pfad 35" d="M302.848,69.824c2.562.166,5.142.158,7.735.358a1.655,1.655,0,0,0,1.61-1.129,1.629,1.629,0,0,0,.038-.847,1.666,1.666,0,0,0-1.545-1.268c-2.638-.193-5.263-.175-7.87-.33a1.614,1.614,0,0,0-1.574,1.64,1.631,1.631,0,0,0,1.6,1.576Z" transform="translate(-301.241 -66.606)" fill="#dc0038"/>
                  </g>
                </g>
              </g>
              <g id="Gruppe_57" data-name="Gruppe 57" transform="translate(181.333 15.31)">
                <g id="Gruppe_48" data-name="Gruppe 48">
                  <path id="Pfad_36" data-name="Pfad 36" d="M341.033,60.022a6.746,6.746,0,0,0-3.29-3.362,5.616,5.616,0,0,0-4.631-.269A12.5,12.5,0,0,0,328.6,59.7a15.6,15.6,0,0,0-2.585,3.38,11.288,11.288,0,0,0-1.522,6.65,8.94,8.94,0,0,0,1.629,4.291,5,5,0,0,0,1.387,1.347,7.713,7.713,0,0,0,2.814,1.062,7.88,7.88,0,0,0,1.072.1,5.791,5.791,0,0,0,.79,0,1.569,1.569,0,0,0,.916-.434.558.558,0,0,0,.186-.191q.116-.168-.142.112l-.641.244a5.063,5.063,0,0,0,1.7-.551l-.545.2.018,0a1.146,1.146,0,1,0-.253-2.278,1.62,1.62,0,0,0,.267.009c-.124,0-.229-.006-.344-.006-.066,0-.356,0-.108,0s-.152-.009-.215-.014-.14-.01-.21-.017c-.165-.014-.306-.111.012.042q.287.23.573.462a2.563,2.563,0,0,0-.377-.429,1.9,1.9,0,0,0-1.357-.365c-.208-.009.349.018.136,0-.066-.006-.134-.006-.2-.01-.156-.008-.311-.022-.466-.039a8.79,8.79,0,0,1-.922-.166c-.222-.05.307.1.092.022-.072-.027-.147-.048-.22-.074a5.4,5.4,0,0,1-.545-.229c-.072-.035-.142-.074-.214-.111-.207-.1.249.176.063.032-.065-.05-.138-.091-.2-.141s-.127-.1-.19-.158c-.3-.258.3.331.085.088-.067-.076-.135-.15-.2-.229a5.7,5.7,0,0,1-.415-.58c-.02-.03-.062-.137-.094-.152.078.038.238.425.1.158-.067-.129-.134-.258-.2-.39a7.529,7.529,0,0,1-.327-.83c-.011-.035-.022-.071-.034-.106-.071-.207.074.263.069.238-.015-.074-.04-.147-.058-.22q-.065-.258-.111-.519c-.062-.354-.085-.706-.114-1.062.051.637.008-.047.016-.218.008-.2.025-.4.048-.6s.056-.415.1-.621c.019-.1.042-.2.062-.3.041-.194-.1.386-.046.194.022-.077.04-.154.062-.231a10.116,10.116,0,0,1,.5-1.356q.161-.359.346-.707c.029-.054.069-.112.092-.169-.01.025-.213.362-.068.122.078-.129.155-.258.236-.386a14.556,14.556,0,0,1,1.132-1.544c.206-.246.421-.488.641-.723.116-.124.233-.246.352-.366l.184-.184c.313-.312-.253.23.079-.075a19.812,19.812,0,0,1,1.855-1.555c.174-.126.356-.245.543-.355a1.057,1.057,0,0,1,.222-.126l-.154.082c.055-.028.112-.054.169-.08.165-.074.334-.145.508-.2.075-.026.15-.05.227-.073s.15-.042.226-.062l-.2.046a3.168,3.168,0,0,0,.558-.074,1.216,1.216,0,0,0,.219-.009c-.119.042-.366-.037-.074,0,.087.012.175.019.262.035s.375.1.079.006c-.28-.089-.046-.014.021.014s.161.065.24.1.165.089.248.132c.212.108-.294-.165-.254-.148a1.457,1.457,0,0,1,.183.11,7.353,7.353,0,0,1,.694.484c.121.1.234.2.349.3.226.2-.1-.073-.1-.1a1.913,1.913,0,0,0,.213.237c.046.054.09.11.132.167s.062.086.092.13q.107.161-.087-.148c-.012.018.2.438.213.481a1.9,1.9,0,0,0,2.275,1.015,1.543,1.543,0,0,0,.941-2.072Z" transform="translate(-324.443 -56.021)" fill="#dc0038"/>
                </g>
                <g id="Gruppe_51" data-name="Gruppe 51" transform="translate(9.871 3.898)">
                  <g id="Gruppe_49" data-name="Gruppe 49" transform="translate(0.387)">
                    <path id="Pfad_37" data-name="Pfad 37" d="M346.147,61.75a79.624,79.624,0,0,1-3.986,8.475q-1.108,2.04-2.321,4.021-.308.5-.622,1-.156.25-.314.5l-.158.247c.1-.159.1-.157,0,0q-.32.492-.646.982a4.325,4.325,0,0,0-.8,1.522,1.582,1.582,0,0,0,2.418,1.566,3.437,3.437,0,0,0,.937-1.072q.334-.482.662-.97c.492-.73.98-1.463,1.455-2.2q1.272-1.985,2.441-4.035a79.424,79.424,0,0,0,4.181-8.462,1.811,1.811,0,0,0-3.243-1.57Z" transform="translate(-337.265 -60.893)" fill="#dc0038"/>
                  </g>
                  <g id="Gruppe_50" data-name="Gruppe 50" transform="translate(0 16.616)">
                    <path id="Pfad_38" data-name="Pfad 38" d="M338.105,84.9l.263.08c.166.052.125.027-.017,0a5.031,5.031,0,0,1,.589.206c.371.136.74.282,1.1.435.737.31,1.461.65,2.178,1.006.693.345,1.379.7,2.064,1.068l1.044.554a2.659,2.659,0,0,0,.979.37,2.284,2.284,0,0,0,.91-.1,1.37,1.37,0,0,0,.932-1.682,2.435,2.435,0,0,0-.418-.817,2.4,2.4,0,0,0-.8-.592c-.376-.2-.75-.4-1.126-.6-.741-.394-1.484-.782-2.234-1.154a31.352,31.352,0,0,0-4.9-1.966,1.62,1.62,0,0,0-1.873,1.326,1.668,1.668,0,0,0,1.308,1.87Z" transform="translate(-336.782 -81.663)" fill="#dc0038"/>
                  </g>
                </g>
                <g id="Gruppe_52" data-name="Gruppe 52" transform="translate(20.217 7.818)">
                  <path id="Pfad_39" data-name="Pfad 39" d="M354.037,66.583c-.718,1.579-1.417,3.17-2.164,4.734a34.432,34.432,0,0,0-1.718,3.964,5.436,5.436,0,0,0,2.822,7.236c1.454.726,4.2,1.51,5.134-.26a1.412,1.412,0,0,0-.54-1.9c-.073-.038-.141-.084-.213-.122A2.154,2.154,0,0,0,356,80.024c-.267.031.415-.018-.011-.009-.136,0-.27-.006-.406-.012-.387-.019.361.082-.025,0-.124-.026-.247-.052-.37-.085-.108-.029-.215-.062-.322-.1-.062-.021-.122-.044-.182-.066-.335-.115.38.185.062.023-.233-.119-.464-.232-.686-.373-.062-.039-.392-.275-.135-.083s-.126-.11-.187-.166q-.14-.125-.27-.261a1.1,1.1,0,0,0-.124-.137c.235.166.2.266.1.129-.069-.1-.139-.194-.2-.3-.03-.05-.057-.1-.087-.152-.144-.238.108.3.05.115-.034-.108-.075-.214-.11-.322-.109-.337.023.378,0-.017-.007-.115-.018-.229-.021-.343,0-.066,0-.133,0-.2-.007-.352-.054.37-.006.017a9.475,9.475,0,0,1,.406-1.67c.091-.276-.016.052-.035.089a2.093,2.093,0,0,0,.082-.211c.057-.141.116-.281.176-.421.128-.3.265-.59.4-.881.26-.539.535-1.071.8-1.609.777-1.57,1.5-3.167,2.246-4.754a1.774,1.774,0,0,0-3.119-1.651Z" transform="translate(-349.714 -65.793)" fill="#dc0038"/>
                </g>
                <g id="Gruppe_53" data-name="Gruppe 53" transform="translate(25.475 11.057)">
                  <path id="Pfad_40" data-name="Pfad 40" d="M363.381,70.575q-3.431,6.468-6.9,12.916a1.687,1.687,0,0,0,2.9,1.724q3.583-6.385,7.128-12.792a1.828,1.828,0,0,0-3.127-1.848Z" transform="translate(-356.286 -69.842)" fill="#dc0038"/>
                </g>
                <g id="Gruppe_56" data-name="Gruppe 56" transform="translate(27.664 14.245)">
                  <g id="Gruppe_54" data-name="Gruppe 54" transform="translate(2.65 1.04)">
                    <path id="Pfad_41" data-name="Pfad 41" d="M370.164,75.8c-2.013,4.018-4.256,7.918-6.433,11.844q-.414.746-.828,1.494c-.11.2-.223.392-.327.591a2.236,2.236,0,0,0-.233,1.282,1.47,1.47,0,0,0,.646,1.219,1.406,1.406,0,0,0,1.376.1,3.71,3.71,0,0,0,.7-.4,2.751,2.751,0,0,0,.583-.808l.734-1.274q.883-1.53,1.765-3.061c1.248-2.17,2.491-4.343,3.71-6.53.461-.826.922-1.652,1.361-2.49a1.754,1.754,0,0,0-.656-2.338,1.73,1.73,0,0,0-2.394.375Z" transform="translate(-362.334 -75.127)" fill="#dc0038"/>
                  </g>
                  <g id="Gruppe_55" data-name="Gruppe 55">
                    <path id="Pfad_42" data-name="Pfad 42" d="M369.189,77.106c.862.4,1.728.791,2.6,1.186.293.133.586.267.878.406q.211.1.421.2l.2.1c-.557-.272-.234-.118-.116-.057A16.939,16.939,0,0,1,374.905,80q.448.311.882.641c.178.135.351.276.53.411.322.242-.3-.318-.04-.031.069.077.143.148.21.226.053.062.1.133.153.192.158.169-.237-.4-.083-.114.067.126.124.27.2.39-.228-.373-.1-.322-.073-.186.016.078.045.155.062.233.011.051.015.1.029.154.074.284,0-.439-.015-.09,0,.11-.014.222-.013.333,0,.294.111-.408.026-.136-.014.045-.022.093-.034.138-.031.114-.074.222-.114.332-.073.2-.187.129.075-.142a1.093,1.093,0,0,0-.1.174c-.06.092-.137.174-.2.265-.134.2.182-.2.171-.171-.022.046-.1.1-.138.129-.078.066-.165.12-.246.182-.111.086-.212,0,.219-.122-.054.015-.1.051-.158.072-.425.167.439-.056.011,0-.231.032-.459.075-.692.1s-.439.041-.66.05c-.02,0-.442.009-.159.007.265,0-.227-.01-.274-.014a10.053,10.053,0,0,1-1.3-.163c-.114-.022-.227-.047-.341-.07-.343-.069.364.1,0,0-.222-.059-.444-.12-.665-.186-.866-.258-1.716-.561-2.577-.816a1.625,1.625,0,0,0-2.031.8,1.722,1.722,0,0,0,.678,2.118,27.773,27.773,0,0,1,2.632,1.9c.057.048.444.335.092.078a2.85,2.85,0,0,1,.268.252c.194.189.382.383.562.586.164.185.322.375.47.572a3.011,3.011,0,0,1,.262.362c-.121-.223-.08-.124.018.042s.191.339.273.514c.05.107.092.216.138.325.156.365-.072-.35.008.036.039.2.083.387.116.583.063.38.019-.239,0,0-.014.142-.006.289-.022.432-.006.042-.01.084-.017.125-.026.173-.023.144.02-.1a1.62,1.62,0,0,1-.058.21,5.094,5.094,0,0,1-.223.558c-.1.218.226-.35.017-.046-.063.091-.118.187-.182.278-.085.118-.289.5-.425.521l.146-.15q-.06.06-.122.118c-.07.064-.139.127-.211.188-.144.122-.294.237-.449.345-.054.038-.214.186-.282.186l.174-.1c-.065.037-.13.072-.2.106a5.778,5.778,0,0,1-.6.269c-.083.032-.168.062-.253.089-.182.059-.175.158.053-.01a1.727,1.727,0,0,1-.636.119c-.126.017-.251.03-.378.04-.084.006-.48.076-.072.012a3.2,3.2,0,0,1-.74-.035c-.2-.018-.406-.045-.606-.077a2.4,2.4,0,0,0-.6-.113l.187.042-.236-.058c-.1-.024-.2-.05-.292-.077q-.377-.1-.75-.217a5.067,5.067,0,0,1-.646-.25c-.071-.033-.14-.069-.211-.1.47.215.282.143.178.088-.176-.094-.352-.188-.526-.285-.741-.414-1.459-.861-2.186-1.294-.33-.2-.667-.383-1-.574a3.455,3.455,0,0,0-.762-.364,2.4,2.4,0,0,0-.774-.061,1.327,1.327,0,0,0-1.213,1.934,2.642,2.642,0,0,0,.966,1.119c.338.222.674.45,1.018.665.69.43,1.391.846,2.1,1.242a10.7,10.7,0,0,0,2.016.958,15.806,15.806,0,0,0,3.1.686,7.791,7.791,0,0,0,6.122-1.919,5.994,5.994,0,0,0,1.787-2.734,5.683,5.683,0,0,0-.3-3.721c-1.074-2.608-3.646-4.467-5.974-6q-.677,1.457-1.361,2.91a28.18,28.18,0,0,0,5.454,1.422,10.2,10.2,0,0,0,3.516-.238,3.583,3.583,0,0,0,1.711-1.15,4.192,4.192,0,0,0,.522-4.51,6.486,6.486,0,0,0-2.122-2.377,21.674,21.674,0,0,0-2.086-1.426,60.163,60.163,0,0,0-5.624-2.688,1.6,1.6,0,0,0-2.133,1.014,1.925,1.925,0,0,0,1.3,2.14Z" transform="translate(-359.023 -73.826)" fill="#dc0038"/>
                  </g>
                </g>
              </g>
            </g>
          </g>
        </g>
        <g id="Gruppe_89" data-name="Gruppe 89" transform="translate(59.91 305.396)">
          <g id="Gruppe_88" data-name="Gruppe 88">
            <g id="Gruppe_61" data-name="Gruppe 61" transform="translate(0 6.695)">
              <path id="Pfad_43" data-name="Pfad 43" d="M181.383,428.211q-.2.46-.4.918l-.065.147-.034.076c-.082.186-.164.371-.247.557q-.414.932-.838,1.861-.864,1.9-1.756,3.786c-1.157,2.454-2.337,4.9-3.5,7.353q-.5,1.05-.994,2.1-.319.682-.639,1.364a2.226,2.226,0,0,0-.154,1.641,1.43,1.43,0,0,0,2.028.923,2.662,2.662,0,0,0,.608-.384,2.444,2.444,0,0,0,.577-.922q.217-.485.433-.97c-.132.3.054-.118.1-.211l.186-.411q.232-.511.464-1.023.846-1.86,1.7-3.714c1.155-2.518,2.306-5.037,3.416-7.574q1.02-2.329,1.99-4.679a1.59,1.59,0,0,0-.97-2.008,1.641,1.641,0,0,0-1.9,1.169Z" transform="translate(-172.665 -426.997)" fill="#dc0038"/>
            </g>
            <g id="Gruppe_62" data-name="Gruppe 62" transform="translate(7.712 9.549)">
              <path id="Pfad_44" data-name="Pfad 44" d="M189.618,431.834q-1.274,3.7-2.7,7.349-.35.893-.71,1.781c-.018.043-.139.342-.06.149.071-.177-.025.058-.032.078l-.175.426q-.19.46-.383.919-.756,1.8-1.557,3.583c-.293.651-.6,1.3-.892,1.949a12.331,12.331,0,0,0-.768,2.436,1.328,1.328,0,0,0,2.219,1.284,11.512,11.512,0,0,0,2.07-3.6q.793-1.826,1.541-3.673,1.538-3.8,2.9-7.659.754-2.136,1.454-4.291a1.6,1.6,0,0,0-1.048-1.971,1.632,1.632,0,0,0-1.858,1.238Z" transform="translate(-182.305 -430.565)" fill="#dc0038"/>
            </g>
            <g id="Gruppe_63" data-name="Gruppe 63" transform="translate(4.847 15.755)">
              <path id="Pfad_45" data-name="Pfad 45" d="M179.811,441.54c2.164.688,4.278,1.546,6.483,2.082a1.677,1.677,0,0,0,.844-3.241c-2.171-.508-4.254-1.339-6.386-2a1.65,1.65,0,0,0-.941,3.158Z" transform="translate(-178.723 -438.322)" fill="#dc0038"/>
            </g>
            <g id="Gruppe_64" data-name="Gruppe 64" transform="translate(12.604 12.201)">
              <path id="Pfad_46" data-name="Pfad 46" d="M191.476,452.523q1.661-3.41,3.579-6.673.961-1.638,1.98-3.235.23-.36.462-.719l.273-.418.117-.178c-.086.13-.086.13,0,0q.514-.767,1.035-1.526.6-.874,1.221-1.731a6.2,6.2,0,0,0,1.382-2.272c.182-1.144-.769-2.25-1.842-1.782a4.621,4.621,0,0,0-1.635,1.7q-.542.737-1.075,1.484-1.188,1.672-2.328,3.393-2.093,3.152-3.966,6.478-1.078,1.92-2.069,3.892a1.639,1.639,0,1,0,2.866,1.588Z" transform="translate(-188.419 -433.88)" fill="#dc0038"/>
            </g>
            <g id="Gruppe_65" data-name="Gruppe 65" transform="translate(23.06 12.623)">
              <path id="Pfad_47" data-name="Pfad 47" d="M201.5,436.213c.5,5.01.842,10.072.942,15.151q.02,1.044.028,2.09,0,.559,0,1.12a3.161,3.161,0,0,0,.15,1.371,1.625,1.625,0,0,0,1.438,1.039,1.591,1.591,0,0,0,1.509-.9,5.853,5.853,0,0,0,.185-2.49q-.017-.934-.046-1.866-.059-1.94-.163-3.877-.2-3.8-.561-7.573-.205-2.183-.455-4.352a1.524,1.524,0,0,0-1.582-1.506,1.724,1.724,0,0,0-1.448,1.793Z" transform="translate(-201.49 -434.407)" fill="#dc0038"/>
            </g>
            <g id="Gruppe_66" data-name="Gruppe 66" transform="translate(14.181 23.866)">
              <path id="Pfad_48" data-name="Pfad 48" d="M192.489,452.155c-.376.069.211-.034.276-.044l.417-.062q.487-.068.975-.118.977-.1,1.955-.127t1.952.02c.051,0,.516.009.122.006.184,0,.373.029.555.046a5.507,5.507,0,0,0,1.263.079,1.657,1.657,0,0,0,.6-3.1,8.011,8.011,0,0,0-2.591-.357q-1.027-.056-2.06-.026a28.937,28.937,0,0,0-4.4.5,1.7,1.7,0,0,0-1.1,2.081,1.655,1.655,0,0,0,2.032,1.1Z" transform="translate(-190.39 -448.461)" fill="#dc0038"/>
            </g>
            <g id="Gruppe_67" data-name="Gruppe 67" transform="translate(28.363 13.319)">
              <path id="Pfad_49" data-name="Pfad 49" d="M211.385,454.879q.157-.586.318-1.169.08-.292.162-.583l.085-.3q.33-1.164.678-2.322.673-2.243,1.4-4.465t1.5-4.419q.4-1.134.813-2.262a6.824,6.824,0,0,0,.678-2.819,1.279,1.279,0,0,0-2.091-.952,6.235,6.235,0,0,0-1.341,2.481q-.428,1.122-.843,2.25-.832,2.258-1.613,4.541-1.608,4.71-2.974,9.51a1.645,1.645,0,0,0,1.354,1.9,1.683,1.683,0,0,0,1.869-1.386Z" transform="translate(-208.119 -435.277)" fill="#dc0038"/>
            </g>
            <g id="Gruppe_68" data-name="Gruppe 68" transform="translate(34.499 12.315)">
              <path id="Pfad_50" data-name="Pfad 50" d="M215.79,435.918q.262,8.06,1.193,16.094a1.6,1.6,0,0,0,3.087.381q1.184-3.508,2.61-6.91.7-1.679,1.456-3.326.377-.823.765-1.638.186-.391.375-.779.094-.194.189-.389c-.164.336.1-.2.131-.262a1.838,1.838,0,0,0-.317-2.322,1.422,1.422,0,0,0-2.086.387,114.351,114.351,0,0,0-6.1,13.981q1.535.2,3.074.38c-.71-5.341-1.177-10.7-1.431-16.071a1.475,1.475,0,0,0-1.634-1.4,1.746,1.746,0,0,0-1.316,1.873Z" transform="translate(-215.788 -434.023)" fill="#dc0038"/>
            </g>
            <g id="Gruppe_69" data-name="Gruppe 69" transform="translate(41.74 14.602)">
              <path id="Pfad_51" data-name="Pfad 51" d="M224.842,438.819q.152,4.588.425,9.173.136,2.273.3,4.546.085,1.156.179,2.31a9.155,9.155,0,0,0,.35,2.55,1.61,1.61,0,0,0,1.75.906,1.7,1.7,0,0,0,1.3-1.474,5.873,5.873,0,0,0-.094-1.52l-.108-1.076q-.114-1.153-.219-2.306-.208-2.268-.382-4.538-.354-4.577-.582-9.159a1.468,1.468,0,0,0-1.686-1.322,1.74,1.74,0,0,0-1.236,1.908Z" transform="translate(-224.84 -436.881)" fill="#dc0038"/>
            </g>
            <g id="Gruppe_72" data-name="Gruppe 72" transform="translate(46.421 16.015)">
              <g id="Gruppe_70" data-name="Gruppe 70" transform="translate(2.536 2.857)">
                <path id="Pfad_52" data-name="Pfad 52" d="M234.775,443.789q-.15,3.6-.394,7.2-.122,1.78-.27,3.558a36.182,36.182,0,0,0-.249,3.635,1.592,1.592,0,0,0,1.265,1.64,1.54,1.54,0,0,0,1.778-1.048,29.844,29.844,0,0,0,.414-3.9q.12-1.819.213-3.639.186-3.64.27-7.284a1.522,1.522,0,1,0-3.027-.166Z" transform="translate(-233.861 -442.219)" fill="#dc0038"/>
              </g>
              <g id="Gruppe_71" data-name="Gruppe 71">
                <path id="Pfad_53" data-name="Pfad 53" d="M232.889,445.152a19.647,19.647,0,0,1,2.29-1.383q.535-.274,1.081-.511c.108-.046.218-.1.329-.138-.046.015-.308.118-.042.018.221-.083.442-.166.665-.243a17.879,17.879,0,0,1,2.423-.647c.209-.041.418-.077.627-.11l.228-.034.114-.016c.171-.022.153-.02-.06.006.09.058.474-.047.573-.054.23-.018.458-.032.689-.04a16.537,16.537,0,0,1,2.4.083c.114.012.229.026.342.041l.141.018c-.254-.034.121.021.14.024.114.02.226.041.339.063q.283.056.564.122c.073.018.151.044.225.055.648.209.438-.379-.6-1.773.13-.176.137-.2.023-.07.249-.222.066-.055.011-.01l-.321.264c-.178.146-.358.291-.538.436q-.6.475-1.2.938-1.186.9-2.417,1.747a62.184,62.184,0,0,1-5.765,3.51,1.735,1.735,0,0,0-.76,2.046,1.532,1.532,0,0,0,1.809,1.068,44.854,44.854,0,0,1,6.5-2.128c.242-.051.485-.1.729-.138.131-.022.266-.051.4-.062-.387.03.059,0,.116-.011a13.148,13.148,0,0,1,1.738-.068c.127,0,.256.018.383.018.372,0-.312-.1.038,0l.11.027q.247.085-.054-.043c.066-.028.421.366,0-.024.234.218-.165-.324-.016-.041.014.027.031.055.047.083q.112.235-.041-.13a1.351,1.351,0,0,0,.084.291c.015.067.028.135.039.2-.031-.27-.034-.308-.022-.128a4.685,4.685,0,0,1,0,.541c0,.036,0,.072-.007.107-.016.183-.012.144.019-.125a1.386,1.386,0,0,0-.058.327q-.072.355-.174.7c-.034.115-.07.23-.109.343s-.152.6-.051.16a4.766,4.766,0,0,1-.647,1.267,2.852,2.852,0,0,1-.393.59c.29-.266.034-.046-.034.039-.1.123-.2.243-.3.362a10.079,10.079,0,0,1-.909.912c-.087.077-.178.15-.266.226-.3.262.286-.2-.035.03-.227.166-.455.328-.694.478a11.7,11.7,0,0,1-1.4.754c-.118.054-.24.117-.362.158.377-.126-.04.013-.1.035q-.432.162-.874.294a16.53,16.53,0,0,1-1.666.406,10.542,10.542,0,0,1-1.827.26c.453,0,.042,0-.047,0-.162.01-.326.018-.489.019-.286,0-.565-.026-.849-.046-.4-.027.343.109-.041,0-.152-.044-.3-.083-.452-.141-.036-.014-.074-.029-.11-.044-.162-.07-.143-.065.062.032-.092.01-.326-.22-.4-.275a1.627,1.627,0,0,0-2.27.454,1.73,1.73,0,0,0,.433,2.326,5.638,5.638,0,0,0,3.766,1.032,19.992,19.992,0,0,0,3.891-.558,13.475,13.475,0,0,0,6.586-3.632,10.259,10.259,0,0,0,2.939-6.632,3.963,3.963,0,0,0-1.634-3.523,6.4,6.4,0,0,0-3.912-.4,34.875,34.875,0,0,0-8.311,2.406q.517,1.558,1.054,3.112a63.123,63.123,0,0,0,5.761-3.516q1.388-.954,2.718-1.977.61-.469,1.207-.953a8.637,8.637,0,0,0,1.4-1.221,2.332,2.332,0,0,0,.067-2.951,2.692,2.692,0,0,0-1.655-.761,17.6,17.6,0,0,0-8.528.3,19.946,19.946,0,0,0-6,2.837,1.759,1.759,0,0,0-.724,2.231,1.484,1.484,0,0,0,2.054.753Z" transform="translate(-230.691 -438.647)" fill="#dc0038"/>
              </g>
            </g>
            <g id="Gruppe_73" data-name="Gruppe 73" transform="translate(65.685 15.23)">
              <path id="Pfad_54" data-name="Pfad 54" d="M254.772,439.374c.17,4.587.271,9.186.535,13.768.128,2.214.356,5.458,2.937,6.114a4.762,4.762,0,0,0,3.09-.469,9.492,9.492,0,0,0,2.35-1.5,10.812,10.812,0,0,0,2.2-2.679,8.965,8.965,0,0,0,.609-1.253,2.983,2.983,0,0,0,.31-1.3,1.761,1.761,0,0,0-.325-.881q-.469-.55-.1-.1c-.026-.042-.054-.082-.082-.122a1.121,1.121,0,0,0-1.3-.446c-.15.066-.267.041.132-.01a2.4,2.4,0,0,0-.461.1,1.661,1.661,0,0,0-.975,1.053,8.984,8.984,0,0,1-.478,1.058c-.091.17-.189.336-.288.5-.2.328.154-.214.011-.016-.056.078-.109.158-.165.234a8.7,8.7,0,0,1-.73.877,3.151,3.151,0,0,0-.4.4c.166-.262.142-.124.016-.018-.071.06-.144.119-.218.178a7.952,7.952,0,0,1-.974.653c-.08.046-.162.089-.243.133-.272.148.073-.025.082-.039-.062.1-.394.172-.51.216-.18.068-.362.118-.546.174-.325.1.093-.018.089-.012-.031.052-.338.019-.4.023-.248.014.421-.009.05-.009-.23,0,0,0,.086.038-.313-.128.2.237-.021-.017.035.041.2.309.058.067-.024-.042-.238-.3-.077-.1.146.179-.02-.054-.046-.127a6.476,6.476,0,0,1-.192-.668c-.051-.218-.1-.436-.135-.656.069.393-.01-.1-.017-.148-.014-.1-.026-.2-.038-.3-.062-.522-.1-1.045-.133-1.569-.13-2.084-.235-4.17-.35-6.255q-.192-3.488-.378-6.978a1.5,1.5,0,1,0-2.976.087Z" transform="translate(-254.77 -437.666)" fill="#dc0038"/>
            </g>
            <g id="Gruppe_74" data-name="Gruppe 74" transform="translate(75.178 16.48)">
              <path id="Pfad_55" data-name="Pfad 55" d="M266.64,441.014q.223,4.328.439,8.658.107,2.146.212,4.29.054,1.092.106,2.185.028.546.054,1.092a3.992,3.992,0,0,0,.185,1.358,1.635,1.635,0,0,0,1.63,1.072,1.68,1.68,0,0,0,1.443-1.313,4.147,4.147,0,0,0,.01-1.374l-.072-1.091q-.071-1.091-.143-2.182-.142-2.143-.285-4.286-.288-4.326-.585-8.65a1.51,1.51,0,1,0-3,.241Z" transform="translate(-266.638 -439.229)" fill="#dc0038"/>
            </g>
            <g id="Gruppe_75" data-name="Gruppe 75" transform="translate(80.302 17.8)">
              <path id="Pfad_56" data-name="Pfad 56" d="M273.049,442.706c.241,2.718.374,5.445.382,8.172q0,1.033-.018,2.066c-.006.306-.014.612-.023.918-.006.2-.006.2,0,.013,0,.1-.007.2-.011.306l-.019.458q-.094,2.064-.287,4.124a1.694,1.694,0,0,0,1.338,1.926,1.664,1.664,0,0,0,1.9-1.36,92.554,92.554,0,0,0-.246-16.947,1.524,1.524,0,1,0-3.018.323Z" transform="translate(-273.042 -440.879)" fill="#dc0038"/>
            </g>
            <g id="Gruppe_76" data-name="Gruppe 76" transform="translate(80.983 17.451)">
              <path id="Pfad_57" data-name="Pfad 57" d="M275.607,444.184a13.333,13.333,0,0,1,1.839-.337q.431-.047.864-.065c.155-.006.311-.008.466-.011.026,0,.25,0,.061,0-.218,0,.152.006.194.009a13.1,13.1,0,0,1,1.861.226c.132.026.264.054.4.084l.229.054c.042.01.218.056,0,0-.238-.064.138.061.19.085s.091.048.138.07c.185.083-.255-.167-.092-.046s-.181-.262-.07-.085a.639.639,0,0,0,.092.128c-.08-.05-.1-.2-.132-.28-.094-.216-.017-.012,0,.064.046.174-.025-.141,0-.158a.912.912,0,0,0-.019.176c0,.217.1-.27.018-.068-.03.073-.051.154-.081.228-.02.051-.13.29-.032.09s0-.007-.019.025c-.074.114-.148.226-.23.335-.069.091-.144.177-.214.266-.135.174.2-.2.049-.053-.054.05-.1.106-.157.156a5.808,5.808,0,0,1-.543.46c-.1.076-.208.145-.312.218-.144.1.112-.072.116-.073a1.115,1.115,0,0,0-.236.134,8.261,8.261,0,0,1-1.407.6,3.292,3.292,0,0,0-.37.112c.3-.14.194-.051.083-.024l-.216.054c-.289.069-.58.127-.872.179-.58.1-1.164.178-1.749.244q.559,1.508,1.133,3.014c-.2.1-.219.112-.062.042-.238.052-.268.066-.091.045-.341.018-.072-.071.026.038-.2-.07-.219-.075-.054-.011.056.022.113.049.168.076.128.062.253.133.378.2.35.2-.274-.186.1.065.155.1.309.2.462.31q.344.236.684.483c1.042.755,2.05,1.57,3.064,2.383q1.609,1.288,3.256,2.551.829.636,1.67,1.265c.776.582,1.522,1.3,2.574,1.046a1.434,1.434,0,0,0,1.137-1.619c-.1-1.111-1.116-1.635-1.915-2.228q-.931-.69-1.85-1.389c-1.182-.9-2.344-1.811-3.5-2.725-1.084-.858-2.17-1.707-3.3-2.467a8.681,8.681,0,0,0-1.909-1.09,2.835,2.835,0,0,0-2.732.318,1.708,1.708,0,0,0,1.121,3.018c2.534-.288,5.359-.786,7.235-2.706,1.189-1.216,2.206-3.05,1.4-4.852-.756-1.682-2.621-2.013-4.118-2.194a13.828,13.828,0,0,0-5.094.306,1.593,1.593,0,0,0-1.011.6,1.8,1.8,0,0,0-.32,1.223c.116.8.865,1.714,1.7,1.5Z" transform="translate(-273.893 -440.443)" fill="#dc0038"/>
            </g>
            <g id="Gruppe_77" data-name="Gruppe 77" transform="translate(93.164 11.4)">
              <path id="Pfad_58" data-name="Pfad 58" d="M300.154,433.069a7.264,7.264,0,0,0-4.507.39,8.49,8.49,0,0,0-3.276,2.516,14.138,14.138,0,0,0-2.259,3.979,15.051,15.051,0,0,0-.979,4.442,9.412,9.412,0,0,0,3.22,7.792,7.6,7.6,0,0,0,7.49,1.2,8.343,8.343,0,0,0,5.07-5.217,1.727,1.727,0,0,0-1.1-2.091,1.613,1.613,0,0,0-2,1.085c-.044.128-.094.253-.144.378-.108.273.172-.36.06-.135-.044.088-.086.178-.131.265a7.085,7.085,0,0,1-.592.942c-.032.043-.066.085-.1.129-.1.138.153-.183.135-.166-.079.078-.147.173-.222.255a6.7,6.7,0,0,1-.5.5c-.08.071-.162.141-.246.207-.037.03-.074.058-.11.087-.206.168.089-.068.114-.078-.231.1-.446.292-.672.41s-.437.21-.662.3c-.293.121.1-.042.106-.036s-.229.072-.211.067q-.217.065-.438.115a7.24,7.24,0,0,1-.89.143c-.034,0-.158.034-.187.016.1.059.27-.007.049-.007-.13,0-.258,0-.387-.006-.2-.011-.4-.042-.606-.071-.374-.056.287.082.023.006-.13-.038-.259-.071-.387-.114a5.739,5.739,0,0,1-.636-.255c-.041-.019-.082-.043-.125-.061-.189-.076.3.174.123.066-.12-.074-.245-.141-.364-.218a6.7,6.7,0,0,1-.543-.393c-.089-.07-.17-.151-.261-.22-.166-.126.238.241.094.086-.056-.06-.118-.116-.174-.175a6.953,6.953,0,0,1-.462-.531c-.084-.107-.165-.218-.242-.33a1.055,1.055,0,0,0-.115-.171c.048.023.185.309.065.1-.131-.23-.257-.462-.367-.706-.053-.114-.1-.231-.149-.349-.026-.068-.053-.136-.078-.2s-.125-.37-.038-.1c.082.253-.035-.14-.055-.219-.033-.13-.062-.261-.088-.392a8.351,8.351,0,0,1-.131-.936c-.035-.434,0,.211,0-.1,0-.168,0-.335,0-.5a10.336,10.336,0,0,1,.093-1.045c.022-.146.046-.293.07-.439a.74.74,0,0,1,.034-.182c-.05.034-.064.291-.01.057.074-.322.147-.642.236-.958a14.186,14.186,0,0,1,.6-1.727c.03-.071.059-.152.1-.221-.022.042-.15.311-.02.05.062-.125.124-.25.189-.373q.222-.421.474-.819c.054-.085.5-.837.57-.811,0,0-.247.294-.032.047.05-.058.1-.118.15-.175.118-.132.238-.261.363-.385a4.378,4.378,0,0,1,.751-.657c-.039.024-.273.189-.038.034.065-.043.128-.087.193-.129q.218-.14.446-.265c.15-.082.3-.158.459-.229.051-.024.1-.046.156-.068.206-.087.118-.1-.012,0a2.373,2.373,0,0,1,.92-.242,1.751,1.751,0,0,0,.5-.067c-.01.006-.3.008-.127.012.093,0,.186,0,.278,0,.15,0,.3.011.447.026.075.008.15.017.224.028s.436.087.057,0a1.466,1.466,0,0,0,1.877-1.053,1.8,1.8,0,0,0-1.052-2.1Z" transform="translate(-289.119 -432.878)" fill="#dc0038"/>
            </g>
            <g id="Gruppe_78" data-name="Gruppe 78" transform="translate(98.819 16.693)">
              <path id="Pfad_59" data-name="Pfad 59" d="M298.5,446.857c2.3-1.3,4.435-2.849,6.651-4.233q-1.073-1.175-2.125-2.361a6.316,6.316,0,0,0-.256,3.678c.112,1.035.233,2.07.356,3.1a36.642,36.642,0,0,0,.591,4.4,1.544,1.544,0,0,0,3.053-.285,9.264,9.264,0,0,0-.136-1.909c-.11-.834-.226-1.668-.34-2.5q-.2-1.438-.384-2.877-.047-.364-.093-.728l-.048-.392c-.042-.332.019.213,0,.01a6.193,6.193,0,0,1-.039-.654c0-.058,0-.117.008-.175.01-.124,0-.077-.018.142-.051-.044.226-.5,0-.034a1.808,1.808,0,0,0-.255-2.023,1.534,1.534,0,0,0-1.874-.33c-2.18,1.366-4.285,2.894-6.546,4.183a1.714,1.714,0,0,0-.672,2.224,1.585,1.585,0,0,0,2.13.762Z" transform="translate(-296.188 -439.495)" fill="#dc0038"/>
            </g>
            <g id="Gruppe_83" data-name="Gruppe 83" transform="translate(116.392 4.647)">
              <g id="Gruppe_79" data-name="Gruppe 79" transform="translate(0.231 4.153)">
                <path id="Pfad_60" data-name="Pfad 60" d="M318.492,431.735c.9,4.841,1.978,9.655,3.279,14.411a1.636,1.636,0,1,0,3.125-.969c-1.378-4.734-2.534-9.53-3.511-14.357a1.605,1.605,0,0,0-1.948-1.127,1.653,1.653,0,0,0-.945,2.042Z" transform="translate(-318.443 -429.628)" fill="#dc0038"/>
              </g>
              <g id="Gruppe_80" data-name="Gruppe 80">
                <path id="Pfad_61" data-name="Pfad 61" d="M320.547,431.08q2.264-1.9,4.635-3.608a1.584,1.584,0,0,0,.6-1.45,1.814,1.814,0,0,0-.907-1.4,1.393,1.393,0,0,0-1.508.074q-2.332,1.678-4.559,3.558a1.663,1.663,0,0,0-.629,1,1.861,1.861,0,0,0,.232,1.273,1.519,1.519,0,0,0,2.133.554Z" transform="translate(-318.154 -424.437)" fill="#dc0038"/>
              </g>
              <g id="Gruppe_81" data-name="Gruppe 81" transform="translate(1.508 6.353)">
                <path id="Pfad_62" data-name="Pfad 62" d="M322.482,437.916q.868-.632,1.726-1.272.42-.314.838-.63a7.519,7.519,0,0,0,1.089-.9,1.662,1.662,0,0,0,.257-1.6,1.521,1.521,0,0,0-.473-.722,1.726,1.726,0,0,0-.913-.4,1.6,1.6,0,0,0-.968.239,5.978,5.978,0,0,0-.828.614q-.41.312-.824.623-.826.622-1.661,1.235a1.662,1.662,0,0,0-.655,1.006,1.819,1.819,0,0,0,.228,1.274,1.571,1.571,0,0,0,2.184.538Z" transform="translate(-320.039 -432.378)" fill="#dc0038"/>
              </g>
              <g id="Gruppe_82" data-name="Gruppe 82" transform="translate(3.607 16.215)">
                <path id="Pfad_63" data-name="Pfad 63" d="M325.215,452.227c1.206-.846,2.39-1.718,3.588-2.565.575-.407,1.158-.8,1.76-1.169.29-.176.588-.345.886-.5.172-.092.172-.09-.007,0,.178-.085.354-.173.527-.266a1.807,1.807,0,0,0,.7-1.14,1.6,1.6,0,0,0-.863-1.7,2.126,2.126,0,0,0-2.111.274q-.445.232-.876.489c-.615.367-1.21.77-1.8,1.186-1.2.849-2.383,1.726-3.59,2.576a1.7,1.7,0,0,0-.507,2.3,1.678,1.678,0,0,0,2.294.52Z" transform="translate(-322.663 -444.705)" fill="#dc0038"/>
              </g>
            </g>
            <g id="Gruppe_84" data-name="Gruppe 84" transform="translate(131.048 21.114)">
              <path id="Pfad_64" data-name="Pfad 64" d="M338.707,448.247a1.7,1.7,0,0,0,.967-2.146l-.214-.394a1.679,1.679,0,0,0-.658-.537l-.4-.126a1.7,1.7,0,0,0-.856.078,1.282,1.282,0,0,0-.543.354,1.238,1.238,0,0,0-.378.506,1.872,1.872,0,0,0-.05,1.274q.1.2.207.4a1.651,1.651,0,0,0,.654.546l.406.129a1.646,1.646,0,0,0,.868-.078Z" transform="translate(-336.474 -445.02)" fill="#dc0038"/>
            </g>
            <g id="Gruppe_85" data-name="Gruppe 85" transform="translate(127.036 7.294)">
              <path id="Pfad_65" data-name="Pfad 65" d="M331.764,430.331a129.387,129.387,0,0,0,8.667,12.1,1.666,1.666,0,1,0,2.65-2.019,129.316,129.316,0,0,1-8.854-11.955,1.539,1.539,0,0,0-2.174-.418,1.734,1.734,0,0,0-.288,2.3Z" transform="translate(-331.459 -427.746)" fill="#dc0038"/>
            </g>
            <g id="Gruppe_86" data-name="Gruppe 86" transform="translate(132.28)">
              <path id="Pfad_66" data-name="Pfad 66" d="M344.592,439.446a35.438,35.438,0,0,0-.977-7.558q-.81-3.884-1.678-7.75-.245-1.091-.494-2.18a7.881,7.881,0,0,0-.863-2.714,1.474,1.474,0,0,0-1.53-.574,1.411,1.411,0,0,0-1.007,1.243,6.535,6.535,0,0,0,.325,2.218q.2.942.4,1.885.412,1.961.809,3.926c.507,2.508,1.053,5.02,1.42,7.556a25.842,25.842,0,0,1,.3,4.311,1.663,1.663,0,0,0,1.833,1.483,1.709,1.709,0,0,0,1.466-1.846Z" transform="translate(-338.015 -418.628)" fill="#dc0038"/>
            </g>
            <g id="Gruppe_87" data-name="Gruppe 87" transform="translate(140.772 17.334)">
              <path id="Pfad_67" data-name="Pfad 67" d="M350.953,443.5a1.858,1.858,0,0,0,.894-.924,1.238,1.238,0,0,0,.1-.633,1.26,1.26,0,0,0-.129-.649l-.234-.382a1.685,1.685,0,0,0-.69-.5l-.413-.1a1.707,1.707,0,0,0-.858.123,1.3,1.3,0,0,0-.53.384,1.511,1.511,0,0,0-.46,1.158,1.267,1.267,0,0,0,.118.65l.229.386a1.658,1.658,0,0,0,.686.512l.415.108a1.674,1.674,0,0,0,.87-.125Z" transform="translate(-348.629 -440.295)" fill="#dc0038"/>
            </g>
          </g>
        </g>
      </g>
    </g>
  </g>
</svg>
