<svg xmlns="http://www.w3.org/2000/svg" width="80" height="80" viewBox="0 0 80 80">
  <g id="cnnhs_logo_small_inverted" transform="translate(40 40)">
    <g id="Gruppe_121" data-name="Gruppe 121" transform="translate(-40 -40)">
      <g id="Gruppe_107" data-name="Gruppe 107">
        <circle id="Ellipse_3" data-name="Ellipse 3" cx="40" cy="40" r="40" fill="#dd0042"/>
      </g>
      <g id="Gruppe_120" data-name="Gruppe 120" transform="translate(6.987 22.143)">
        <g id="Gruppe_108" data-name="Gruppe 108" transform="translate(0.56 23.694)" opacity="0.5">
          <path id="Pfad_78" data-name="Pfad 78" d="M31.394,129.456s-2.085,1.32-2.306,1.5a3.416,3.416,0,0,1-.5.329l-.014-.091s-.307.235-.454.331-.164-.032-.164-.032-.545.29-.648.33-.064-.11-.064-.11-.561.276-.661.3a3.027,3.027,0,0,1-.458-.014,5.225,5.225,0,0,1,.34-.4c.118-.113.216-.219.216-.219l-.244.038.654-.37.142-.132s2.031-.85,2.322-.964a1.6,1.6,0,0,1,.406-.12s-2.878.719-3.264.87l.264-.166s-.567.2-.955.313l.207-.17a8.537,8.537,0,0,1-1.5.317c.174-.106.336-.208.336-.208s-1.684.2-2.174.181a4.306,4.306,0,0,0,.433-.181,17.681,17.681,0,0,1-2.329-.476c1.238-.329,1.946-.58,1.946-.58l-.365-.05a3.145,3.145,0,0,1,.91-.137c-.219-.12-.375-.187-.375-.187a4.518,4.518,0,0,1,1.13-.018c-.066-.1-.171-.254-.171-.254a14.971,14.971,0,0,1,2.25-.058c1.008.075,4.022.353,4.022.353s-3.248-.508-3.4-.52-.865-.188-.865-.188a6.356,6.356,0,0,1-.95,0c.39-.088.492-.1.492-.1l-1.892-.351a2.628,2.628,0,0,1,.408-.134,17.04,17.04,0,0,1-1.7-.44,1.345,1.345,0,0,1,.483-.163,13.831,13.831,0,0,1-1.867-.656c.258-.056.484-.086.484-.086a8.327,8.327,0,0,1-1.138-.594,1.175,1.175,0,0,0,.568-.094,12.967,12.967,0,0,1-2.092-1.528c1.5.182,2.64.149,3.162.214-.227-.251-.4-.434-.4-.434a5.5,5.5,0,0,1,1.146.283c-.089-.247-.152-.389-.152-.389a8.321,8.321,0,0,1,1.436.657c-.143-.22-.261-.41-.261-.41a9.625,9.625,0,0,1,1.481.883,2.376,2.376,0,0,1-.216-.48,5.026,5.026,0,0,1,1.191.8,3.409,3.409,0,0,0-.148-.454s3.189,2.478,4.208,3.484c-.575-.718-2.626-3.114-3.385-4.138l.373.072s-.491-.629-.982-1.206a.834.834,0,0,0,.378-.026,4,4,0,0,1-.925-1.414.332.332,0,0,0,.291.027s-.156-.215-.631-.971a.649.649,0,0,0,.358.014,4.1,4.1,0,0,1-.373-.828c.135.107.366,0,.366,0a2.014,2.014,0,0,1-.572-.9c.1.051.487-.113.487-.113a2.52,2.52,0,0,1-.486-1.008.33.33,0,0,0,.364.012l-.132-3.607a27.878,27.878,0,0,1,2.338,2.727s.176-.011.26-.255a2.52,2.52,0,0,1,.325,1.071s.4-.142.435-.246a2.015,2.015,0,0,1,.187,1.048s.244-.076.271-.246a4.125,4.125,0,0,1,.286.862.653.653,0,0,0,.254-.253c.163.878.194,1.142.194,1.142a.331.331,0,0,0,.2-.217,4,4,0,0,1,.276,1.667.834.834,0,0,0,.3-.237c.029.758.094,1.552.094,1.552s.052-.071.226-.306c.135,1.267.248,4.42.311,5.337Z" transform="translate(-18.867 -114.593)" fill="#ffb203"/>
        </g>
        <g id="Gruppe_114" data-name="Gruppe 114" transform="translate(0 0)">
          <g id="Gruppe_109" data-name="Gruppe 109" transform="translate(0 4.346)">
            <path id="Pfad_79" data-name="Pfad 79" d="M29.572,67.409a5.41,5.41,0,0,0-6.647-.108c-3.664,2.366-6.648,8.676-4.986,13.423s7,3.005,7.882,2.622,3.339-1.7,3.491-2.28-.938-3.874-1.5-3.5S24.3,80.9,22.175,79.127c-1.764-1.471-.014-7.218,2.88-8.419,2.3-.956,3.37.377,3.658.046S29.9,67.661,29.572,67.409Z" transform="translate(-17.468 -66.224)" fill="#ffb203"/>
          </g>
          <g id="Gruppe_110" data-name="Gruppe 110" transform="translate(12.966 3.634)">
            <path id="Pfad_80" data-name="Pfad 80" d="M61.75,72.293C61,66.457,58.172,64.3,56.935,64.452c-1.717.2-3.957,1.959-5.864,7.961-1.378,4.335-1.364,8.874-.922,9.415.342.42,3.6.083,3.944-.352s-.06-2.164.258-2.747c.379-.7,2.867-.71,3.3-.395s-.1,2.178.41,2.738,3.458.07,3.847-.444C62.105,80.362,62.423,77.563,61.75,72.293Zm-3.32,2.289c-.468.319-4.089.465-4.226.023s1.38-4.917,2.429-5.1C57.479,69.35,58.9,74.263,58.43,74.582Z" transform="translate(-49.882 -64.445)" fill="#ffb203"/>
          </g>
          <g id="Gruppe_111" data-name="Gruppe 111" transform="translate(53.772)">
            <path id="Pfad_81" data-name="Pfad 81" d="M163.3,63.046c-.8-5.758-3.816-7.824-5.017-7.681-1.666.2-3.906,1.746-5.475,7.735-1.178,4.5-1.029,8.762-.594,9.3.338.415,3.432.126,3.763-.3s-.086-2.135.214-2.71c.359-.687,2.777-.7,3.2-.385s-.07,2.149.434,2.7,3.168.015,3.511-.4C163.777,70.78,164.026,68.246,163.3,63.046Zm-3.557,1.471c-.443.3-3.5.919-3.632.506s1.021-4.974,2.019-5.152C158.936,59.729,160.188,64.218,159.746,64.517Z" transform="translate(-151.897 -55.359)" fill="#ffb203"/>
          </g>
          <g id="Gruppe_112" data-name="Gruppe 112" transform="translate(26.947 1.859)">
            <path id="Pfad_82" data-name="Pfad 82" d="M84.95,78.3c-.489-.207.718-16.143.944-16.539a5.485,5.485,0,0,1,3.366-.728c.469.307,3.289,7.672,3.289,7.672s.109-7.316.443-7.722,3.235-1.309,3.564-.855.481,16.083.059,16.5-3.327,1.109-3.77.611-3.621-6.569-3.621-6.569.276,6.745-.03,6.987A15.333,15.333,0,0,1,84.95,78.3Z" transform="translate(-84.834 -60.007)" fill="#ffb203"/>
          </g>
          <g id="Gruppe_113" data-name="Gruppe 113" transform="translate(40.405 0.962)">
            <path id="Pfad_83" data-name="Pfad 83" d="M118.6,75.356c-.49-.208.685-15.721.91-16.118s2.847-1.06,3.316-.752,3.38,7.676,3.38,7.676.109-7.316.444-7.722,3.23-.96,3.56-.506-.065,15.532-.487,15.946-2.928.906-3.372.408-3.477-6.164-3.477-6.164.1,6.76-.2,7A13.916,13.916,0,0,1,118.6,75.356Z" transform="translate(-118.481 -57.765)" fill="#ffb203"/>
          </g>
        </g>
        <g id="Gruppe_119" data-name="Gruppe 119" transform="translate(11.926 20.308)">
          <g id="Gruppe_115" data-name="Gruppe 115" transform="translate(14.33 2.477)">
            <path id="Pfad_84" data-name="Pfad 84" d="M94.655,119.459c-1.076-5.414-4.173-7.236-4.962-7.134-1.316.17-3.38,1.43-5.265,7.668-1.416,4.687-1.516,9.132-1.12,9.691.308.434,3.358.148,3.708-.3s.039-2.226.367-2.824c.392-.715,3.253-.958,3.649-.631s-.167,2.339.3,2.918,3.234.072,3.6-.356C95.382,127.949,95.6,124.215,94.655,119.459Zm-3.481,2.525c-.452.31-3.638.544-3.746.112s1.009-4.612,2-4.792C90.223,117.16,91.626,121.674,91.174,121.985Z" transform="translate(-83.107 -112.321)" fill="#ffb203"/>
          </g>
          <g id="Gruppe_116" data-name="Gruppe 116" transform="translate(0 3.454)">
            <path id="Pfad_85" data-name="Pfad 85" d="M48.714,116.131c.412-.532,3.473-1,3.8-.616.268.315-.151,5.9.14,5.9a9.566,9.566,0,0,0,3.234-.393c.289-.176.331-5.491.67-5.834a6.185,6.185,0,0,1,3.489-.277c.593.351.532,15.6.144,16.1-.49.636-4.036.778-4.621.439-.413-.239.3-5.529.054-5.924a12.4,12.4,0,0,0-3.4.329c-.17.172-.092,5.433-.528,5.941-.4.466-4.021,1.068-4.366.546C47.03,131.9,48.359,116.589,48.714,116.131Z" transform="translate(-47.281 -114.766)" fill="#ffb203"/>
          </g>
          <g id="Gruppe_117" data-name="Gruppe 117" transform="translate(27.514 1.082)">
            <path id="Pfad_86" data-name="Pfad 86" d="M117.538,110.062c.255-.492,2.943-.654,3.222-.08s-1.131,7.809-.437,10.268c.494,1.754,3.745,1.437,4.147-.059.464-1.727-.446-10.371-.084-10.82s3.028-.9,3.371-.093a153.767,153.767,0,0,1,1.08,15.88c-.234.412-3.327.558-3.5.417s-.236-.735-.236-.735-3.049,1.675-5.674,1.206-3.972-4.17-3.094-10.274C117.007,111.1,117.283,110.554,117.538,110.062Z" transform="translate(-116.067 -108.836)" fill="#ffb203"/>
          </g>
          <g id="Gruppe_118" data-name="Gruppe 118" transform="translate(41.53)">
            <path id="Pfad_87" data-name="Pfad 87" d="M152.012,118.085c.52-.319,3.22,1.22,4.654.864s2.5-1.557,1.346-2.6-4.091-.394-5.239-2.869.524-5.8,2.582-6.689,5.724-.748,6-.34c.264.388-.054,3.2-.588,3.417-.291.117-2.03-.481-3.524-.062-1.252.351-1.606,1.622-.526,2.29s3.777.364,4.783,2.46,1.3,5.038-2.108,7.57-8.111.316-8.261-.284S151.494,118.4,152.012,118.085Z" transform="translate(-151.107 -106.13)" fill="#ffb203"/>
          </g>
        </g>
      </g>
    </g>
  </g>
</svg>
