<svg id="img_garten" xmlns="http://www.w3.org/2000/svg" width="547.694" height="470.2" viewBox="0 0 547.694 470.2">
  <path id="Pfad_165" data-name="Pfad 165" d="M544.812,444.89H527.507a49.628,49.628,0,0,0-3.459,19.788c-.046,1.661-4.071,3.313,0-14.86a41.115,41.115,0,0,1,1.561-4.929h-6.462c0,.119.027.237.036.356,1.022,25.137-3.925,21.97-3.587,19.743a72.757,72.757,0,0,0,1.232-20.1h-83.59c-3.158,5.769-5.321,13.39-5.2,23.448-.046,1.661-4.071,3.313,0-14.86a38.643,38.643,0,0,1,3.213-8.58h-8.5c.173,1.3.329,2.629.42,4.016,1.022,25.137-3.925,21.97-3.587,19.743a69.288,69.288,0,0,0,.785-23.759H340.712c-4.034,6.024-7,14.458-6.864,26.187-.046,1.661-4.071,3.313,0-14.86a37.188,37.188,0,0,1,4.8-11.327H328.117a55.87,55.87,0,0,1,.858,6.754c1.022,25.137-3.925,21.97-3.587,19.743,2-10.387,1.807-19.159.3-26.506H300.679L278.39,487.424H571.985L544.858,444.89Z" transform="translate(-24.291 -77.535)" fill="#ba004c"/>
  <path id="Pfad_166" data-name="Pfad 166" d="M338.936,468.471c-.128-11.738,2.839-20.163,6.864-26.187a35.16,35.16,0,0,1,11.957-11.072c.21,1.908,1.241,6.444,6.234,10.57-.84-5.568-3.614-9.73-5.349-11.053l.52-.274c.94,1.561,5.075,7.421,14.3,7.621-4.427-5.741-9.867-8.2-12.769-8.361.329-.155.657-.292.967-.42,1.324.584,9.164,3.441,17.653-6.061-9.429-2.1-16.858,2.656-17.78,5.659-.383.119-.776.246-1.187.392,2.236-1.844,5.148-7.083,5.267-14.367-7.822,6.1-7.019,13.929-6.864,14.978-.31.128-.612.256-.931.4.967-1.323,1.077-7.092-1.972-12.806-1.871,7.64,1.3,12.267,1.762,12.9a32.081,32.081,0,0,0-13.883,11.893,37.189,37.189,0,0,0-4.8,11.327c-4.062,18.182-.037,16.521,0,14.86Z" transform="translate(-29.415 -74.92)" fill="#ffc50a"/>
  <path id="Pfad_167" data-name="Pfad 167" d="M339.293,394.558c.721,1.78,2.957,5.86,8.89,8.461-2.328-5.121-6.134-8.37-8.178-9.164.146-.137.283-.274.42-.4,1.333,1.25,6.91,5.75,15.836,3.414-5.814-4.29-11.711-5.184-14.549-4.555.274-.228.539-.447.8-.657,1.433.2,9.757.794,15.325-10.67-9.639.557-15.489,7.165-15.553,10.314-.329.219-.666.447-1.013.694,1.634-2.4,2.985-8.233,1.114-15.243-5.86,8.014-2.93,15.316-2.5,16.283-.256.2-.52.42-.785.639.566-1.543-.9-7.11-5.4-11.774.292,7.859,4.609,11.446,5.23,11.93-5.65,4.774-12.085,13.308-11.61,27.446.091,1.552.2,2.948.319,4.217a42.583,42.583,0,0,1,2.729,6.143c-4.345-19.022,2.757-30.787,8.927-37.067Z" transform="translate(-28.558 -71.59)" fill="#ffc50a"/>
  <path id="Pfad_168" data-name="Pfad 168" d="M325.741,466.515c-.338,2.218,4.609,5.385,3.587-19.743a55.636,55.636,0,0,0-.858-6.754,49.388,49.388,0,0,0-1.972-7.32,44.686,44.686,0,0,0-2.729-6.143A43.434,43.434,0,0,0,310.1,411.431c.794-.739,6.1-6.134,5.449-16.722-5.413,6.846-6.663,14.513-5.723,16.539-.383-.256-.758-.511-1.132-.748.447-1.351,3.414-11.565-5.522-21.55-1.588,9.675,1,17.333,3.523,20.345-.5-.283-.977-.548-1.451-.794-.5-4.226-9.237-12.331-22.271-11.8,9,14.668,20.1,12.76,22.006,12.3.374.246.767.5,1.159.776-3.907-.466-11.711,1.515-18.958,8.05,12.313,1.962,19.213-4.838,20.838-6.69.21.155.411.319.621.484-2.629,1.342-7.32,6.207-9.776,13.4,7.631-4.281,10.1-10.058,10.825-12.55a47.8,47.8,0,0,1,16.356,27.547c1.506,7.348,1.7,16.11-.3,26.506Z" transform="translate(-24.691 -72.654)" fill="#d6af09"/>
  <path id="Pfad_169" data-name="Pfad 169" d="M442.146,465.46c-.11-10.049,2.054-17.68,5.2-23.449a35.209,35.209,0,0,1,13.618-13.819c.21,1.908,1.241,6.444,6.234,10.57-.84-5.568-3.614-9.73-5.349-11.053l.52-.274c.94,1.561,5.075,7.421,14.3,7.621-4.427-5.741-9.867-8.2-12.769-8.361.329-.155.657-.292.967-.42,1.324.584,9.164,3.441,17.662-6.061-9.429-2.1-16.858,2.656-17.78,5.659-.383.119-.776.246-1.187.392,2.236-1.844,5.148-7.083,5.267-14.367-7.822,6.1-7.019,13.929-6.864,14.978-.31.128-.612.256-.931.4.968-1.324,1.077-7.092-1.981-12.806-1.871,7.64,1.3,12.267,1.762,12.9A32.039,32.039,0,0,0,445.35,442a38.987,38.987,0,0,0-3.213,8.58c-4.062,18.182-.037,16.521,0,14.86Z" transform="translate(-38.42 -74.657)" fill="#ffc50a"/>
  <path id="Pfad_170" data-name="Pfad 170" d="M442.5,391.558c.721,1.78,2.957,5.86,8.89,8.461-2.328-5.12-6.134-8.37-8.178-9.164.146-.137.283-.274.42-.4,1.333,1.25,6.91,5.75,15.836,3.414-5.814-4.29-11.711-5.184-14.549-4.555.274-.228.539-.447.8-.657,1.433.2,9.757.794,15.325-10.67-9.639.557-15.489,7.165-15.553,10.314-.329.219-.666.447-1.013.694,1.634-2.4,2.985-8.233,1.114-15.243-5.86,8.014-2.93,15.316-2.5,16.283-.256.2-.52.42-.785.639.566-1.543-.9-7.11-5.4-11.774.292,7.859,4.609,11.446,5.23,11.93-5.65,4.774-12.085,13.308-11.61,27.446.091,1.552.2,2.948.319,4.217a42.583,42.583,0,0,1,2.729,6.143c-4.345-19.022,2.757-30.787,8.927-37.067Z" transform="translate(-37.563 -71.328)" fill="#ffc50a"/>
  <path id="Pfad_171" data-name="Pfad 171" d="M428.951,463.515c-.338,2.218,4.609,5.385,3.587-19.743-.091-1.387-.237-2.711-.42-4.016a49.3,49.3,0,0,0-2.419-10.068,44.687,44.687,0,0,0-2.729-6.143A43.434,43.434,0,0,0,413.3,408.421c.794-.739,6.1-6.134,5.449-16.722-5.413,6.846-6.663,14.513-5.723,16.539-.383-.256-.758-.5-1.132-.748.447-1.351,3.414-11.565-5.522-21.55-1.588,9.675,1,17.333,3.523,20.345-.5-.283-.977-.548-1.451-.794-.5-4.226-9.237-12.331-22.271-11.8,9,14.668,20.108,12.76,22.006,12.3.374.246.767.5,1.159.776-3.907-.466-11.711,1.515-18.958,8.05,12.313,1.962,19.213-4.838,20.838-6.69.21.155.411.319.621.484-2.629,1.342-7.32,6.207-9.776,13.4,7.631-4.29,10.1-10.059,10.825-12.55a48,48,0,0,1,16.84,30.285,69.751,69.751,0,0,1-.785,23.759Z" transform="translate(-33.695 -72.392)" fill="#d6af09"/>
  <path id="Pfad_172" data-name="Pfad 172" d="M547.357,461.45a49.66,49.66,0,0,1,3.459-19.788,35.325,35.325,0,0,1,15.371-17.479c.21,1.908,1.241,6.444,6.234,10.57-.84-5.568-3.615-9.73-5.349-11.053l.52-.274c.94,1.561,5.075,7.421,14.3,7.621-4.427-5.741-9.867-8.2-12.769-8.361.328-.155.657-.292.967-.42,1.324.584,9.164,3.441,17.653-6.061-9.429-2.1-16.859,2.656-17.78,5.659-.383.119-.776.246-1.187.392,2.236-1.844,5.148-7.083,5.267-14.367-7.822,6.1-7.019,13.929-6.864,14.978-.31.128-.612.256-.931.4.967-1.323,1.077-7.092-1.972-12.806-1.871,7.64,1.3,12.267,1.762,12.9a32.307,32.307,0,0,0-17.123,18.292,40.6,40.6,0,0,0-1.561,4.929c-4.062,18.182-.036,16.521,0,14.86Z" transform="translate(-47.6 -74.307)" fill="#ffc50a"/>
  <path id="Pfad_173" data-name="Pfad 173" d="M547.723,387.548c.721,1.78,2.957,5.86,8.89,8.461-2.328-5.121-6.134-8.37-8.178-9.164.146-.137.283-.274.42-.4,1.333,1.25,6.91,5.75,15.836,3.414-5.814-4.29-11.711-5.184-14.549-4.555.274-.228.539-.447.8-.657,1.433.2,9.757.794,15.325-10.67-9.639.557-15.489,7.165-15.553,10.314-.329.219-.666.447-1.013.694,1.634-2.4,2.985-8.233,1.114-15.243-5.86,8.014-2.93,15.316-2.5,16.283-.256.2-.52.42-.785.639.566-1.543-.9-7.11-5.4-11.774.292,7.859,4.609,11.446,5.23,11.93-5.65,4.774-12.085,13.308-11.61,27.446.091,1.552.2,2.948.319,4.217a42.588,42.588,0,0,1,2.729,6.143c-4.345-19.022,2.757-30.787,8.936-37.067Z" transform="translate(-46.744 -70.978)" fill="#ffc50a"/>
  <path id="Pfad_174" data-name="Pfad 174" d="M534.171,459.5c-.338,2.218,4.609,5.385,3.587-19.743,0-.119-.027-.237-.036-.356a51.441,51.441,0,0,0-2.8-13.728,44.691,44.691,0,0,0-2.729-6.143,43.435,43.435,0,0,0-13.673-15.124c.794-.739,6.1-6.134,5.449-16.722-5.413,6.846-6.663,14.513-5.723,16.539-.383-.256-.758-.511-1.132-.748.447-1.351,3.414-11.565-5.522-21.55-1.588,9.675,1,17.333,3.523,20.345-.5-.283-.977-.548-1.451-.794-.5-4.226-9.237-12.331-22.271-11.8,9,14.668,20.108,12.76,22.006,12.3.374.246.767.5,1.159.776-3.907-.466-11.711,1.515-18.958,8.05,12.313,1.962,19.213-4.838,20.838-6.69.21.155.411.32.621.484-2.629,1.342-7.32,6.207-9.776,13.4,7.631-4.281,10.1-10.058,10.825-12.55,7.266,6.052,15.763,16.7,17.278,33.945a72.368,72.368,0,0,1-1.232,20.1Z" transform="translate(-42.876 -72.042)" fill="#d6af09"/>
  <path id="Pfad_175" data-name="Pfad 175" d="M278.34,491.49l12.651,50.3L563.7,543.17l8.233-51.68Z" transform="translate(-24.287 -81.601)" fill="#ff005c"/>
  <path id="Pfad_176" data-name="Pfad 176" d="M406.308,286.033c7.777,34.758,5.942,57.622,20.582,52.136,13.271-4.974-15.955-76.014-35.835-80.45-.018.548-.027,1-.046,1.387,4.637,1.771,11.035,7.841,15.3,26.935Z" transform="translate(-34.117 -61.204)" fill="#24ffef"/>
  <path id="Pfad_177" data-name="Pfad 177" d="M208.341,132.656c.621.465,1.232.949,1.88,1.479.794.648,1.835,1.533,3,2.583-.137-.046-.228-.073-.228-.073s9.3,31.335.794,56.444c-1.707,3.678-3.587,7.375-5.641,10.989-2.118,3.724-4.153,7.6-6.07,11.5,6.307.173,13.363.438,20.427.529,2.848-20.446,4.664-40.471,4.783-53.012.173-2.8.256-5.732.219-8.744-.009-.885-.027-1.78-.064-2.683a14.277,14.277,0,0,0-.274-1.561v-.046c-.128-7.293-5.869-17-20.071-23.412a13.207,13.207,0,0,0,1.031,5.458,3.126,3.126,0,0,1,.2.557Z" transform="translate(-17.633 -49.769)" fill="#ffc50a"/>
  <path id="Pfad_178" data-name="Pfad 178" d="M236,239.852a1.422,1.422,0,0,1,.183.146c.036-.082.082-.155.119-.228-.1.027-.2.064-.31.091Z" transform="translate(-20.592 -59.638)" fill="#24ffef"/>
  <path id="Pfad_179" data-name="Pfad 179" d="M229.233,165.734c-.119,12.541-1.935,32.558-4.783,53.012a212.663,212.663,0,0,0,22.079-.639c.621-.5,1.26-.986,1.908-1.451-.675-.539-1.36-1.05-2.045-1.543-2.893-20.911-13.536-49.352-16.95-58.124.037,3.012-.046,5.942-.219,8.744Z" transform="translate(-19.585 -52.416)" fill="#24ffef"/>
  <path id="Pfad_180" data-name="Pfad 180" d="M183.83,265.079c1.679,9.9,3.067,22.454,4.18,35.579a24.366,24.366,0,0,0,12.8-1.132c6.207-2.072,12.651-27.337,17.434-55.8a194.51,194.51,0,0,1-27.958,4.783c-3.779,9.21-6.17,15.9-6.453,16.557Z" transform="translate(-16.041 -59.984)" fill="#ffc50a"/>
  <path id="Pfad_181" data-name="Pfad 181" d="M116.194,368.677q-.986.685-1.972,1.424C99.4,379.074,78.917,399.665,62.36,417.728c6.4,10.433,19.149,19.013,22.572,21.194,18.6-14.759,40.553-33.653,54.592-50.457a10.446,10.446,0,0,0,1.826-1.926c4.929-7.713,1.351-59.456,1.387-79.254-10.2-.119-24.863-3.478-34.712-10.3,1.506,23.96,5.413,52.757,8.178,71.687Z" transform="translate(-5.442 -64.631)" fill="#00ccbf"/>
  <path id="Pfad_182" data-name="Pfad 182" d="M180.98,267.157c-2.994,1.47-7.037,1.1-10.1.411-2.811,18.428-5.321,32.822-10.634,35.606-1.9.995-5.075,1.506-8.981,1.515,6.061,23.43,10.46,62.478,13.664,80.66-6.544,16.42-9.073,36.136-9.8,53.542,9.839,2.994,21.513,1.743,26.78.922,2.966-19.944,5.723-43.3,6.627-62.04-.009-.228-.027-.447-.036-.675.347-10.634-.739-44.031-3.322-74.4-1.114-13.116-2.51-25.676-4.18-35.579a.069.069,0,0,1-.018.037Z" transform="translate(-13.2 -62.025)" fill="#00ccbf"/>
  <path id="Pfad_183" data-name="Pfad 183" d="M262.246,234.065l.246-.073a13.982,13.982,0,0,1-4.007-1.972c-1.1.42-2.2.84-3.313,1.25a27.627,27.627,0,0,0-4.062,4.482,79.121,79.121,0,0,0,32.485,12.788c-7.694-6-14.951-11.893-20.135-16.147l-1.214-.329Z" transform="translate(-21.911 -58.962)" fill="#24ffef"/>
  <path id="Pfad_184" data-name="Pfad 184" d="M211.882,193.1c8.516-25.11-.794-56.444-.794-56.444s.082.027.228.073c-1.168-1.05-2.209-1.935-3-2.583-.648-.529-1.26-1.013-1.88-1.479,1.36,5.23-11.327,13.025-19.3-3.35.155-.776.292-1.561.438-2.337-1.889-.119-4.025-.2-6.316-.228a.927.927,0,0,1,.265.456s10.515,43.447.913,79.573c-.8,3.021-1.543,6.088-2.227,9.173.739-.082,1.406-.155,1.944-.219a155.242,155.242,0,0,1,18.018-.155c1.926-3.888,3.961-7.777,6.07-11.5,2.054-3.614,3.934-7.311,5.641-10.989Z" transform="translate(-15.725 -49.777)" fill="#fff"/>
  <path id="Pfad_185" data-name="Pfad 185" d="M182.855,265.574a.13.13,0,0,1,.018-.037c.292-.657,2.674-7.357,6.453-16.557a95.534,95.534,0,0,1-13.992.3c-.931,5.778-1.762,11.409-2.574,16.7,3.058.694,7.1,1.059,10.1-.411Z" transform="translate(-15.075 -60.442)" fill="#fff"/>
  <path id="Pfad_186" data-name="Pfad 186" d="M287.405,304.688a44.9,44.9,0,0,0,12.906-4.728,2.424,2.424,0,0,1,1.323-3.085,2.66,2.66,0,0,1,2.337.018,3.188,3.188,0,0,1,1.725-4.135,3.466,3.466,0,0,1,2.784-.119,3.3,3.3,0,0,1,1.232-3.231,3.625,3.625,0,0,1,3.7-.511c.1-.128.2-.246.3-.374.319-.42.639-.84.949-1.269a3.21,3.21,0,0,1,.338-4.08,3.574,3.574,0,0,1,3.24-1.132c24.206-27.382,58.635-24.745,58.635-24.745l.064-2.045c.009-.383.027-.849.046-1.387.027-.967.064-2.218.119-3.806-22.563-8.233-43.775-4.974-54.528-2.236a41.614,41.614,0,0,0-2.492-7.53c-11.437-25.84-48.832-34.548-71.176-18.7-.648.466-1.287.94-1.908,1.451,1.406-.128,2.766-.283,4.089-.465a33.626,33.626,0,0,1,3.551-.584c1.077-1.835,5.321-3.551,10.57-5.905a8.661,8.661,0,0,1,2.811-.055c2.839.319,9.2.958,10.506.575,1.241.036.557,2-1.46,2.757-3.8,1.524-6.161.931-6.161.931s-.219.237-.52.575c1.3.447,3.761,1.314,5.832,2.191a37.833,37.833,0,0,1,7.968,1.086,44.332,44.332,0,0,1,4.8,1.46h.055a7.094,7.094,0,0,1,2.738,1.132c16.439,7.4,19.515,22.189,19.515,22.189a89.192,89.192,0,0,1-29.546,0,79.152,79.152,0,0,1-32.485-12.788,27.627,27.627,0,0,1,4.062-4.482c-5.769,2.127-11.665,4.08-17.543,5.823-.036.082-.082.155-.119.228a57.4,57.4,0,0,0-4.217,11.227c-4.8,18.556,1,38.783,17.99,48.914a54.564,54.564,0,0,0,37.989,6.836Z" transform="translate(-20.054 -57.36)" fill="#00ccbf"/>
  <path id="Pfad_187" data-name="Pfad 187" d="M323.061,289.717a3.188,3.188,0,0,0-.338,4.08,4.455,4.455,0,0,0,.475.566,1.512,1.512,0,0,0,1.917.21c2.273-1.506,2.921-3.076,3.076-4.053a1.514,1.514,0,0,0-.776-1.579,3.421,3.421,0,0,0-1.1-.365,3.557,3.557,0,0,0-3.24,1.132Z" transform="translate(-28.107 -63.893)" fill="#ffd6ca"/>
  <path id="Pfad_188" data-name="Pfad 188" d="M316.436,296.573A3.322,3.322,0,0,0,315.2,299.8a3.466,3.466,0,0,0-2.784.119,3.184,3.184,0,0,0-1.725,4.135,2.66,2.66,0,0,0-2.337-.018,2.424,2.424,0,0,0-1.323,3.085,1.269,1.269,0,0,0,.055.173,1.181,1.181,0,0,0,1.342.73,4.688,4.688,0,0,0,3.268-1.908,1.135,1.135,0,0,0,.119-.967,1.609,1.609,0,0,0,.694.027,6.242,6.242,0,0,0,4.317-2.519,1.556,1.556,0,0,0,.237-.867,1.765,1.765,0,0,0,.712-.137c2.4-1.123,3.277-2.537,3.587-3.478a1.537,1.537,0,0,0-.557-1.743,3.326,3.326,0,0,0-.685-.374,3.585,3.585,0,0,0-3.7.511Z" transform="translate(-26.777 -64.525)" fill="#ffd6ca"/>
  <path id="Pfad_189" data-name="Pfad 189" d="M165.9,549.159c-6.9-.183-13.162-1.1-17.945-5.239-.292,4.235,6.015,8.087,10.405,8.2s6.216.237,18.748,3.368,17.516-2.994,17.516-2.994c-13.262,2.857-21.833-3.149-28.733-3.332Z" transform="translate(-12.91 -86.176)" fill="#ba004c"/>
  <path id="Pfad_190" data-name="Pfad 190" d="M154.74,455.214c-.968-.292-1.917-.63-2.848-1-3.423,19.186-6.681,73.823-4.025,81.892,4.774,4.126,11.044,5.048,17.945,5.239s15.471,6.188,28.733,3.332c8.306-8.872-.812-17.068-6.344-17.361s-16.083-3.3-17.753-12.14,13.609-35.424,13.919-59.548c0,0-1.059.228-2.839.5-5.276.821-16.95,2.072-26.78-.922Z" transform="translate(-12.818 -78.348)" fill="#ffc50a"/>
  <path id="Pfad_191" data-name="Pfad 191" d="M11.9,511.65c-5.239-4.5-9.52-9.164-10.615-15.38-2.9,3.1-.438,10.068,2.912,12.925s4.673,4.107,12.423,14.44S32.1,532.36,32.1,532.36c-12.094-6.152-14.96-16.21-20.19-20.71Z" transform="translate(-0.002 -82.018)" fill="#ba004c"/>
  <path id="Pfad_192" data-name="Pfad 192" d="M57.041,429.125c-.31-.5-.6-1-.885-1.515C41.4,440.334,4.43,482.348,1.4,490.279c1.1,6.216,5.385,10.88,10.615,15.38s8.1,14.568,20.19,20.71c12.039-1.643,10.141-13.755,6.024-17.47-2.7-2.437-6.344-7.174-7.311-12.377A12.257,12.257,0,0,1,32.1,488.28c4.272-7.9,32.9-18.9,48.357-37.423,0,0-.319-.192-.867-.548-3.423-2.181-16.174-10.761-22.572-21.194Z" transform="translate(-0.124 -76.028)" fill="#ffc50a"/>
  <path id="Pfad_193" data-name="Pfad 193" d="M166.5,254.752c.812-5.294,1.643-10.926,2.574-16.7-5.157-.329-9.483-1.223-12.7-2.775-11.117-1.342-13-18.218-14.86-26.634-.593-2.7-1.177-5.413-1.725-8.123a351.259,351.259,0,0,1-5.467-35.269c-.8-8.123-1.159-16.548,1.278-24.443a20.155,20.155,0,0,1,2.61-5.586,9.1,9.1,0,0,1,3.907-3.614c4.445-1.634,10.132.785,13.253,4.19,5.814,6.371,8.744,14.212,10,22.636,2.884,19.314,2.127,38.719.338,58.078,2.693-.5,5.486-.867,7.6-1.114.685-3.085,1.424-6.161,2.227-9.173,9.6-36.127-.913-79.573-.913-79.573a.927.927,0,0,0-.265-.456c2.291.027,4.427.11,6.316.228.319-1.771.621-3.551.894-5.294a61.855,61.855,0,0,0-34.684,4.3s.146.064.411.192c-32.695,8.845-46.295,140.965-46.295,140.965.785,6.143,4.819,11.126,10.414,15,9.849,6.818,24.516,10.177,34.712,10.3h.776c3.907-.018,7.083-.529,8.981-1.515,5.312-2.784,7.822-17.178,10.634-35.606Z" transform="translate(-8.815 -49.218)" fill="#ffc50a"/>
  <path id="Pfad_194" data-name="Pfad 194" d="M245.191,224.544c1.1-.411,2.209-.821,3.313-1.25a6.484,6.484,0,0,1-2.063-8.306h.018s.037-.064.064-.1a29.959,29.959,0,0,0-3.551.584c-1.314.183-2.683.338-4.089.465a212.508,212.508,0,0,1-22.079.639c-7.065-.091-14.111-.347-20.427-.529a155.275,155.275,0,0,0-18.018.155c-.548.055-1.2.128-1.944.219-2.118.246-4.9.612-7.6,1.114,1.789-19.369,2.537-38.764-.338-58.078-1.25-8.425-4.19-16.265-10-22.636-3.122-3.4-8.808-5.823-13.253-4.19-1.679.612-2.921,2.2-3.907,3.614a20.546,20.546,0,0,0-2.61,5.586c-2.437,7.9-2.081,16.32-1.278,24.443a351.25,351.25,0,0,0,5.467,35.269q.835,4.066,1.725,8.123c1.862,8.416,3.742,25.292,14.86,26.634,3.213,1.552,7.539,2.446,12.7,2.775a94.277,94.277,0,0,0,13.992-.3,194.718,194.718,0,0,0,27.958-4.783c4.354-1.05,8.772-2.227,13.207-3.532.1-.027.2-.064.31-.091,5.878-1.743,11.765-3.7,17.543-5.823Z" transform="translate(-11.939 -50.245)" fill="#b6fff8"/>
  <path id="Pfad_195" data-name="Pfad 195" d="M256.85,222.321a6.472,6.472,0,0,0,2.063,8.306,14.1,14.1,0,0,0,4.007,1.972l-.246.073,1.214.329,10,2.674c.283.055,7.749,1.269,8.032,1.232l9.474-1.2a.722.722,0,0,0,.411-1.25,5.648,5.648,0,0,0-2.172-1.241c-.949.128-1.9.237-2.848.347a20.06,20.06,0,0,1-9.447-.712c-.748-.274-.42-1.479.329-1.2a19.283,19.283,0,0,0,9.118.666c3.112-.347,6.243-.785,9.31-1.4a.611.611,0,0,1,.557.164.8.8,0,0,0-.192-.31,5.767,5.767,0,0,0-2.7-1.387c-2.866.365-5.659,1.068-8.58,1.177a24.873,24.873,0,0,1-8.041-.977.625.625,0,0,1,.329-1.2,24.743,24.743,0,0,0,8.47.894c3.012-.155,5.905-.986,8.9-1.26a.513.513,0,0,1,.484.21.668.668,0,0,0-.228-.447,7.449,7.449,0,0,0-1.05-.812,7.036,7.036,0,0,0-2.738-1.132h-.055c-.657.009-7.8.119-10.132-1.278a21.991,21.991,0,0,0-2.638-1.269c-2.072-.867-4.536-1.743-5.832-2.191.3-.338.52-.575.52-.575s2.364.593,6.161-.931c2.017-.767,2.7-2.72,1.46-2.757-1.305.383-7.658-.265-10.506-.575a8.663,8.663,0,0,0-2.811.055c-5.248,2.355-9.493,4.071-10.57,5.905-.018.037-.046.073-.064.11h-.018Zm23.439,9.748.493.1C280.618,232.133,280.454,232.106,280.29,232.069Z" transform="translate(-22.348 -57.579)" fill="#fad4c8"/>
  <path id="Pfad_196" data-name="Pfad 196" d="M297.31,229.36a.5.5,0,0,0-.484-.21c-2.994.274-5.887,1.1-8.9,1.26a24.743,24.743,0,0,1-8.47-.894.625.625,0,0,0-.329,1.2,24.873,24.873,0,0,0,8.041.977c2.921-.1,5.7-.8,8.58-1.177.356-.046.721-.091,1.086-.119a.674.674,0,0,0,.484-1.041Z" transform="translate(-24.317 -58.711)" fill="#dea594"/>
  <path id="Pfad_197" data-name="Pfad 197" d="M298.653,232.493a.568.568,0,0,0-.557-.164c-3.076.621-6.2,1.05-9.31,1.4a19.283,19.283,0,0,1-9.118-.666c-.758-.274-1.086.931-.329,1.2a20.06,20.06,0,0,0,9.447.712c.949-.11,1.9-.219,2.848-.347,2.273-.292,4.546-.648,6.791-1.1a.592.592,0,0,0,.228-1.041Z" transform="translate(-24.336 -58.988)" fill="#dea594"/>
  <path id="Pfad_198" data-name="Pfad 198" d="M187.789,127.158c7.977,16.375,20.656,8.58,19.3,3.35a3.126,3.126,0,0,0-.2-.557,13.178,13.178,0,0,1-1.031-5.458,31.576,31.576,0,0,1,.356-4.765c-3.742-2.054-5.787-4.29-8.2-6.49a17.815,17.815,0,0,1-5.613-10.515c-.018-.1-.027-.21-.046-.319a7.072,7.072,0,0,1-1.041-.374c-.411,4.171-1.123,10.606-2.2,17.488-.274,1.743-.566,3.514-.894,5.294-.146.785-.283,1.561-.438,2.337Z" transform="translate(-16.385 -47.62)" fill="#f4c0b5"/>
  <path id="Pfad_199" data-name="Pfad 199" d="M192.1,100.261a17.867,17.867,0,0,0,5.613,10.515c2.41,2.2,4.454,4.436,8.2,6.49a44.937,44.937,0,0,0,11.738,4.126A133.234,133.234,0,0,0,228.98,96.126a.689.689,0,0,1-.383-.274,5.226,5.226,0,0,0-2.565-1.479c-.821-.319-.456-1.652.365-1.333a7.951,7.951,0,0,1,3.012,1.652,64.882,64.882,0,0,0,1.734-7.43,19.444,19.444,0,0,1-5.358-.356c-11.729-2.5-16.977-9.383-19.049-13.207-2.437,4.536-7.987,13.792-13.344,15.243-1.57-2.757-3.961-6.179-6.207-6.134a2.25,2.25,0,0,0-1.415.548c-3.541,2.884-.748,13.554,5.239,16.22a8.307,8.307,0,0,0,1.041.374c.018.1.027.21.046.319Zm33.251-2.291a1.2,1.2,0,1,1,.064,1.7A1.208,1.208,0,0,1,225.348,97.97ZM221.012,93.1c.283-.6,1.579-1.953,1.99-.621a1.709,1.709,0,0,1-.018.831c-.721,4.089-.986,7.512.064,11.592a5.948,5.948,0,0,1,.246,1.962,1.5,1.5,0,0,1-.52,1.059,1.682,1.682,0,0,1-1.26.256c-1.123-.155-3.5-.52-3.742-1.926a2.826,2.826,0,0,1,.119-1.132c.931-3.788,1.908-7.567,2.866-11.345a4.111,4.111,0,0,1,.246-.657ZM208.1,90.568c2.355-2.6,6.435-1.7,9.429-.73.84.274.484,1.6-.365,1.333-2.437-.785-6.152-1.762-8.087.374C208.48,92.2,207.5,91.225,208.1,90.568Zm6.554,5.714a1.2,1.2,0,1,1-.064-1.7A1.208,1.208,0,0,1,214.65,96.281Zm2.154,14.412c.858.21.493,1.543-.365,1.333a.215.215,0,0,1-.073-.018c-1.442,1.278-4.263,1.031-6.3-.164-2.592-1.533-6.143-4.418-7.019-8.379-.246-.3-.484-.621-.721-.931-.52-.721.675-1.406,1.187-.694a23.22,23.22,0,0,0,13.281,8.872Zm-17.342-8.406a3.712,3.712,0,0,1,4.746-2.683.691.691,0,0,1-.365,1.333,2.32,2.32,0,0,0-3.049,1.725c-.21.858-1.543.493-1.333-.365Zm-12-14.768c-.821-.319-.456-1.652.365-1.333a8.082,8.082,0,0,1,5.13,6.334c.128.867-1.2,1.241-1.333.365a6.727,6.727,0,0,0-4.162-5.376Z" transform="translate(-16.074 -45.149)" fill="#ffd6ca"/>
  <path id="Pfad_200" data-name="Pfad 200" d="M193.673,87.728c5.358-1.451,10.907-10.707,13.344-15.243,2.072,3.824,7.32,10.707,19.049,13.207a19.1,19.1,0,0,0,5.358.356c6.207-.447,12.249-3.907,13.929-10.8.055-.228.11-.466.155-.712a12.086,12.086,0,0,0-1.415-8.762c-10.624-4.8-22.974-8-39.084-4.564-.009,0-.018-.037-.009-.064a48.86,48.86,0,0,0-17.561,18.383,19.017,19.017,0,0,0,.036,2.054c2.236-.046,4.637,3.377,6.207,6.134Z" transform="translate(-16.354 -43.934)" fill="#99504b"/>
  <path id="Pfad_201" data-name="Pfad 201" d="M220.989,107.989c.237,1.406,2.62,1.771,3.742,1.926a1.642,1.642,0,0,0,1.26-.256,1.535,1.535,0,0,0,.52-1.059,6.232,6.232,0,0,0-.246-1.962c-1.05-4.071-.785-7.5-.064-11.592a1.825,1.825,0,0,0,.018-.831c-.411-1.333-1.707.018-1.99.621a4.465,4.465,0,0,0-.246.657c-.958,3.779-1.935,7.558-2.866,11.345a2.826,2.826,0,0,0-.119,1.132Z" transform="translate(-19.282 -46.889)" fill="#f4c0b5"/>
  <path id="Pfad_202" data-name="Pfad 202" d="M215.609,96.623a1.2,1.2,0,1,0,1.7-.064A1.191,1.191,0,0,0,215.609,96.623Z" transform="translate(-18.785 -47.115)" fill="#ba004c"/>
  <path id="Pfad_203" data-name="Pfad 203" d="M231.011,101.9a1.2,1.2,0,1,0-1.7.064A1.191,1.191,0,0,0,231.011,101.9Z" transform="translate(-19.975 -47.432)" fill="#ba004c"/>
  <path id="Pfad_204" data-name="Pfad 204" d="M211.339,93c1.935-2.136,5.65-1.159,8.087-.374.849.274,1.2-1.059.365-1.333-2.994-.968-7.074-1.871-9.429.73C209.769,92.684,210.736,93.661,211.339,93Z" transform="translate(-18.339 -46.599)" fill="#99504b"/>
  <path id="Pfad_205" data-name="Pfad 205" d="M229.986,96.22a5.129,5.129,0,0,1,2.565,1.479.66.66,0,0,0,.383.274c.548.155,1.214-.392.812-.968a4.618,4.618,0,0,0-.374-.447,7.884,7.884,0,0,0-3.012-1.652c-.831-.319-1.187,1.013-.365,1.333Z" transform="translate(-20.028 -46.994)" fill="#99504b"/>
  <path id="Pfad_206" data-name="Pfad 206" d="M191.9,94.095c.128.876,1.451.5,1.333-.365A8.082,8.082,0,0,0,188.1,87.4c-.821-.329-1.187,1-.365,1.333A6.714,6.714,0,0,1,191.9,94.1Z" transform="translate(-16.341 -46.339)" fill="#f2bbaa"/>
  <path id="Pfad_207" data-name="Pfad 207" d="M204.86,106.309c.876,3.97,4.427,6.855,7.019,8.379,2.035,1.2,4.856,1.442,6.3.164A24.589,24.589,0,0,1,204.86,106.3Z" transform="translate(-17.876 -47.993)" fill="#fff"/>
  <path id="Pfad_208" data-name="Pfad 208" d="M204.058,105.184c.228.319.475.63.721.931a24.659,24.659,0,0,0,13.317,8.552.215.215,0,0,1,.073.018.691.691,0,0,0,.365-1.333,23.176,23.176,0,0,1-13.281-8.872c-.52-.712-1.716-.018-1.187.694Z" transform="translate(-17.795 -47.808)" fill="#f2bbaa"/>
  <path id="Pfad_209" data-name="Pfad 209" d="M202.26,105.131a2.331,2.331,0,0,1,3.049-1.725c.849.256,1.214-1.068.365-1.333a3.716,3.716,0,0,0-4.746,2.683.691.691,0,0,0,1.333.365Z" transform="translate(-17.531 -47.609)" fill="#f2bbaa"/>
  <path id="Pfad_210" data-name="Pfad 210" d="M204.708,59.68c.055-.922,6.07-11.209,17.214-15.425-11.081-3.761-22.18.338-32.138,7.95-10.971,8.388-2.747,26.068-2.747,26.068l.1-.2A48.809,48.809,0,0,1,204.7,59.689Z" transform="translate(-16.062 -42.456)" fill="#d6af09"/>
  <path id="Pfad_211" data-name="Pfad 211" d="M206.68,59.644s0,.064.009.064c16.11-3.432,28.45-.228,39.084,4.564h.018c6.17-8.461,7.43-21.148-11.09-21.833a27.5,27.5,0,0,0-10.807,1.771c-11.145,4.217-17.16,14.5-17.214,15.425Z" transform="translate(-18.034 -42.419)" fill="#ffc50a"/>
  <path id="Pfad_212" data-name="Pfad 212" d="M418.592,279.772c2.729,3.4,15.079,5.038,7.4-5.613s-20.035-8.525-20.035-8.525c8.872,2.82,9.9,10.734,12.632,14.138Z" transform="translate(-35.422 -61.88)" fill="#24ffef"/>
</svg>
